<?xml version="1.0" encoding="UTF-8"?>
<svg version="1.1" xmlns="http://www.w3.org/2000/svg" width="828" height="792">
<path d="M0 0 C4.43157646 4.07004246 7.5585735 8.56043864 10.8125 13.6015625 C11.36981812 14.45354218 11.92713623 15.30552185 12.50134277 16.18331909 C13.70691701 18.02708118 14.90991066 19.87253269 16.1105957 21.71948242 C19.36245304 26.72017427 22.63474961 31.70745773 25.90625 36.6953125 C26.57974487 37.72291687 27.25323975 38.75052124 27.94714355 39.80926514 C34.70404574 50.10342845 41.59186439 60.30697856 48.5 70.5 C59.96837227 87.42910038 71.26692537 104.4644127 82.4609375 121.57617188 C88.11350325 130.20363176 93.78067581 138.76579891 100 147 C100.3309668 146.38294189 100.66193359 145.76588379 101.00292969 145.13012695 C107.33560585 133.3397125 113.73740774 121.60108368 120.41162109 110.00024414 C126.09888873 100.11099561 131.65468926 90.14892332 137.21777344 80.18945312 C140.14133437 74.95748051 143.0708977 69.72887166 146 64.5 C149.51328342 58.22743669 153.02581751 51.95445878 156.53515625 45.6796875 C159.43673093 40.49226646 162.34146792 35.30662971 165.24902344 30.12255859 C166.44312363 27.99309102 167.63645063 25.86318975 168.82910156 23.73291016 C170.61229629 20.5494473 172.39939339 17.36820594 174.1875 14.1875 C174.99876343 12.73706299 174.99876343 12.73706299 175.82641602 11.25732422 C176.58329712 9.91371826 176.58329712 9.91371826 177.35546875 8.54296875 C177.79528076 7.75946045 178.23509277 6.97595215 178.68823242 6.16870117 C179.98663893 4.02208941 181.49475299 2.00699601 183 0 C221.94 0 260.88 0 301 0 C301 126.72 301 253.44 301 384 C263.34195985 385.04605667 225.67256591 386 188 386 C187.67 316.7 187.34 247.4 187 176 C182.71 183.26 178.42 190.52 174 198 C171.3268928 202.38552897 168.64733779 206.76268194 165.9375 211.125 C161.26630155 218.68130119 156.61918732 226.24904143 152.0625 233.875 C145.5432762 244.78504052 138.94149056 255.64450316 132.33847046 266.50392151 C129.7381773 270.78172983 127.14505961 275.0638347 124.5546875 279.34765625 C116.50558923 292.65245362 108.37504458 305.8968474 100 319 C96.95336676 316.13099955 94.6352863 313.18186497 92.33984375 309.6875 C91.63867432 308.62668213 90.93750488 307.56586426 90.21508789 306.47290039 C89.84497589 305.90846222 89.47486389 305.34402405 89.09353638 304.76248169 C87.09055924 301.70876245 85.07138798 298.6657596 83.0546875 295.62109375 C82.63697586 294.98956894 82.21926422 294.35804413 81.78889465 293.7073822 C77.4307766 287.12458395 73.00273239 280.59008014 68.5625 274.0625 C67.76812764 272.8938939 66.97377553 271.72527404 66.17944336 270.55664062 C64.58377118 268.20950008 62.98757369 265.86271774 61.39111328 263.51611328 C57.81826638 258.26355628 54.2526574 253.00608796 50.68649292 247.74899292 C48.70795767 244.83246128 46.72895523 241.91624668 44.75 239 C43.95833109 237.83333485 43.16666443 236.66666819 42.375 235.5 C41.983125 234.9225 41.59125 234.345 41.1875 233.75 C28.125 214.5 15.0625 195.25 2 176 C1.67 245.3 1.34 314.6 1 386 C-36.29 386 -73.58 386 -112 386 C-112.495 266.21 -112.495 266.21 -113 144 C-127.04875912 154.11628993 -127.04875912 154.11628993 -140.9375 164.4375 C-150.57321495 171.69612228 -160.27798969 178.85758444 -170 186 C-179.0252491 192.63321194 -188.04882521 199.26699406 -197 206 C-205.1498895 212.13028521 -213.3602261 218.17710259 -221.57666016 224.21777344 C-226.34600926 227.72535438 -231.11090562 231.2389817 -235.87646484 234.75170898 C-239.82071 237.65865573 -243.76627545 240.56377129 -247.71484375 243.46484375 C-255.83971746 249.43743304 -263.93940618 255.44087274 -272 261.5 C-280.83960249 268.14470604 -289.72940267 274.71854559 -298.64111328 281.26611328 C-302.59679609 284.17371619 -306.54822094 287.08709487 -310.5 290 C-315.23620449 293.49111479 -319.97321522 296.98109802 -324.71484375 300.46484375 C-332.83972928 306.43744172 -340.93865854 312.44185569 -349 318.5 C-351.48524118 320.36380865 -353.97083449 322.22714666 -356.45654297 324.09033203 C-358.1994568 325.39893944 -359.94058051 326.70993351 -361.68017578 328.02294922 C-364.30270163 330.00111282 -366.93189944 331.97009299 -369.5625 333.9375 C-370.7680957 334.85208984 -370.7680957 334.85208984 -371.99804688 335.78515625 C-372.74248047 336.33945312 -373.48691406 336.89375 -374.25390625 337.46484375 C-374.90689697 337.955896 -375.5598877 338.44694824 -376.23266602 338.95288086 C-378 340 -378 340 -381 340 C-376.87911351 335.76321358 -372.64289702 331.7431955 -368.16796875 327.8828125 C-365.75157049 325.7842468 -363.37470976 323.645603 -361 321.5 C-358.04130249 318.82951656 -355.07073528 316.17701942 -352.0625 313.5625 C-348.83440488 310.75177475 -345.66261557 307.884201 -342.5 305 C-338.71337002 301.54671847 -334.8952368 298.13900949 -331.02734375 294.77734375 C-328.66510827 292.70640513 -326.33204147 290.60487152 -324 288.5 C-321.01937279 285.81016569 -318.02754767 283.13689636 -315 280.5 C-310.28298716 276.38918961 -305.64361111 272.19332155 -301 268 C-295.72014424 263.23213025 -290.42708194 258.48487782 -285.0625 253.8125 C-282.69035571 251.72788836 -280.34443935 249.61571356 -278 247.5 C-274.38323655 244.23609152 -270.73610392 241.01209051 -267.0625 237.8125 C-263.8248667 234.9673071 -260.6331371 232.07146164 -257.43359375 229.18359375 C-255.32488854 227.29151315 -253.20080199 225.42094242 -251.0625 223.5625 C-247.83440488 220.75177475 -244.66261557 217.884201 -241.5 215 C-237.71337002 211.54671847 -233.8952368 208.13900949 -230.02734375 204.77734375 C-227.66510827 202.70640513 -225.33204147 200.60487152 -223 198.5 C-220.01937279 195.81016569 -217.02754767 193.13689636 -214 190.5 C-209.28298716 186.38918961 -204.64361111 182.19332155 -200 178 C-194.72014424 173.23213025 -189.42708194 168.48487782 -184.0625 163.8125 C-181.69035571 161.72788836 -179.34443935 159.61571356 -177 157.5 C-174.01937279 154.81016569 -171.02754767 152.13689636 -168 149.5 C-163.28298716 145.38918961 -158.64361111 141.19332155 -154 137 C-148.72014424 132.23213025 -143.42708194 127.48487782 -138.0625 122.8125 C-135.69035571 120.72788836 -133.34443935 118.61571356 -131 116.5 C-127.38323655 113.23609152 -123.73610392 110.01209051 -120.0625 106.8125 C-116.8248667 103.9673071 -113.6331371 101.07146164 -110.43359375 98.18359375 C-108.32488854 96.29151315 -106.20080199 94.42094242 -104.0625 92.5625 C-100.83440488 89.75177475 -97.66261557 86.884201 -94.5 84 C-90.71337002 80.54671847 -86.8952368 77.13900949 -83.02734375 73.77734375 C-80.66510827 71.70640513 -78.33204147 69.60487152 -76 67.5 C-73.01937279 64.81016569 -70.02754767 62.13689636 -67 59.5 C-62.28298716 55.38918961 -57.64361111 51.19332155 -53 47 C-47.72014424 42.23213025 -42.42708194 37.48487782 -37.0625 32.8125 C-34.69035571 30.72788836 -32.34443935 28.61571356 -30 26.5 C-26.38459795 23.2373201 -22.7391044 20.0142505 -19.06640625 16.81640625 C-16.67103608 14.71083512 -14.30394858 12.57551312 -11.9375 10.4375 C-8.01067037 6.89303555 -4.03481448 3.42082097 0 0 Z " fill="#000000" transform="translate(414,198)"/>
<path d="M0 0 C111.87 0 223.74 0 339 0 C339 32.01 339 64.02 339 97 C300.39 97 261.78 97 222 97 C222.33 148.48 222.66 199.96 223 253 C226.96 249.7 230.92 246.4 235 243 C237.61122938 240.99154974 240.22005158 239.00889983 242.875 237.0625 C249.10476828 232.44041386 255.23464533 227.71184634 261.3203125 222.90234375 C265.44629263 219.64185154 269.59737822 216.41395265 273.75 213.1875 C274.50780762 212.59855957 275.26561523 212.00961914 276.04638672 211.40283203 C277.59269608 210.20123508 279.13908324 208.99973823 280.68554688 207.79833984 C284.45815634 204.86700637 288.22900355 201.93340802 292 199 C293.49999123 197.83332206 294.99999124 196.6666554 296.5 195.5 C297.2425 194.9225 297.985 194.345 298.75 193.75 C307 187.33333333 315.25 180.91666667 323.5 174.5 C324.24290283 173.92217773 324.98580566 173.34435547 325.7512207 172.74902344 C327.24711662 171.58556688 328.74304745 170.42215522 330.23901367 169.25878906 C334.05209776 166.29338002 337.86452064 163.32712738 341.67578125 160.359375 C349.30459492 154.42016436 356.94506643 148.49764033 364.61328125 142.609375 C370.98721641 137.70605374 377.32446734 132.7551514 383.66943359 127.81445312 C387.44517266 124.87486662 391.22265535 121.93752285 395 119 C396.50000877 117.83334461 398.00000876 116.66667793 399.5 115.5 C402.5 113.16666667 405.5 110.83333333 408.5 108.5 C409.24290283 107.92217773 409.98580566 107.34435547 410.7512207 106.74902344 C412.24711662 105.58556688 413.74304745 104.42215522 415.23901367 103.25878906 C419.05209776 100.29338002 422.86452064 97.32712738 426.67578125 94.359375 C428.22130431 93.15618595 429.76687671 91.95306029 431.3125 90.75 C432.06208984 90.16653809 432.81167969 89.58307617 433.58398438 88.98193359 C438.04367789 85.51339222 442.51594544 82.06196868 447 78.625 C452.39117088 74.48743048 457.71440148 70.27143176 463 66 C463.66 66.33 464.32 66.66 465 67 C460.28766097 71.81051276 455.53241316 76.47843951 450.421875 80.86328125 C447.09300065 83.80020749 443.86290587 86.83846241 440.625 89.875 C435.63518456 94.55203383 430.61002662 99.17929851 425.51171875 103.73828125 C420.8582295 107.92859272 416.27312358 112.19346168 411.67773438 116.44726562 C403.30008986 124.20073174 394.90295374 131.93265659 386.48388672 139.64111328 C383.98835593 141.92642496 381.49425473 144.2132958 379 146.5 C378.00000675 147.41667404 377.00000676 148.3333407 376 149.25 C375.505 149.70375 375.01 150.1575 374.5 150.625 C358 165.75 358 165.75 356.50024414 167.12475586 C355.49940332 168.04220685 354.49858955 168.95968736 353.49780273 169.87719727 C351.01088739 172.15710551 348.52351685 174.43651293 346.03515625 176.71484375 C340.84702953 181.46607559 335.66726439 186.22608074 330.5 191 C324.84111032 196.22812079 319.16617168 201.43844089 313.48388672 206.64111328 C310.98835593 208.92642496 308.49425473 211.2132958 306 213.5 C305.00000675 214.41667404 304.00000676 215.3333407 303 216.25 C302.505 216.70375 302.01 217.1575 301.5 217.625 C297 221.75 297 221.75 295.50024414 223.12475586 C294.49940332 224.04220685 293.49858955 224.95968736 292.49780273 225.87719727 C290.01088739 228.15710551 287.52351685 230.43651293 285.03515625 232.71484375 C279.84702953 237.46607559 274.66726439 242.22608074 269.5 247 C263.84111032 252.22812079 258.16617168 257.43844089 252.48388672 262.64111328 C249.98835593 264.92642496 247.49425473 267.2132958 245 269.5 C244.00000675 270.41667404 243.00000676 271.3333407 242 272.25 C241.505 272.70375 241.01 273.1575 240.5 273.625 C224 288.75 224 288.75 222.50024414 290.12475586 C221.49940332 291.04220685 220.49858955 291.95968736 219.49780273 292.87719727 C217.01088739 295.15710551 214.52351685 297.43651293 212.03515625 299.71484375 C206.84702953 304.46607559 201.66726439 309.22608074 196.5 314 C190.84111032 319.22812079 185.16617168 324.43844089 179.48388672 329.64111328 C176.98835593 331.92642496 174.49425473 334.2132958 172 336.5 C171.00000675 337.41667404 170.00000676 338.3333407 169 339.25 C168.505 339.70375 168.01 340.1575 167.5 340.625 C163 344.75 163 344.75 161.50024414 346.12475586 C160.49940332 347.04220685 159.49858955 347.95968736 158.49780273 348.87719727 C156.01088739 351.15710551 153.52351685 353.43651293 151.03515625 355.71484375 C146.37806675 359.97982179 141.72579999 364.24974402 137.08862305 368.53637695 C134.39451244 371.02652709 131.69741793 373.51343367 129 376 C128.4632666 376.4954834 127.9265332 376.9909668 127.37353516 377.50146484 C125.83477854 378.92030618 124.29289337 380.33565982 122.75 381.75 C121.85796875 382.56984375 120.9659375 383.3896875 120.046875 384.234375 C118 386 118 386 117 386 C117 290.63 117 195.26 117 97 C78.39 97 39.78 97 0 97 C0 64.99 0 32.98 0 0 Z " fill="#1B0702" transform="translate(32,32)"/>
<path d="M0 0 C5.0022709 4.39593504 9.29941134 9.89867006 12 16 C11.29296875 18.1953125 11.29296875 18.1953125 10 20 C9.195625 21.1446875 9.195625 21.1446875 8.375 22.3125 C5.82049353 25.20312574 3.06828868 27.61110971 0.14453125 30.1171875 C-4.63794074 34.31600626 -9.05892844 38.84710576 -13.1875 43.6875 C-17.98130492 49.26735607 -23.28359339 54.36199591 -28.51269531 59.52880859 C-30.68422393 61.67681113 -32.8418261 63.8385856 -35 66 C-36.27074749 67.27091917 -37.54158931 68.54174403 -38.8125 69.8125 C-39.49570312 70.49570312 -40.17890625 71.17890625 -40.8828125 71.8828125 C-42.984375 73.984375 -45.0859375 76.0859375 -47.1875 78.1875 C-48.18233398 79.18245483 -48.18233398 79.18245483 -49.19726562 80.19750977 C-50.6413333 81.64138187 -52.0861655 83.08448932 -53.53125 84.52734375 C-55.55708163 86.55638081 -57.57653007 88.59132618 -59.59375 90.62890625 C-60.8957873 91.94014988 -62.19787155 93.25134689 -63.5 94.5625 C-64.15097656 95.22185547 -64.80195313 95.88121094 -65.47265625 96.56054688 C-68.83762611 99.94251153 -72.21514798 103.08123124 -76 106 C-77.0828125 107.0828125 -77.0828125 107.0828125 -78.1875 108.1875 C-80.66254491 110.66254491 -83.19889607 112.98663228 -85.8125 115.3125 C-93.89894007 122.49981202 -93.89894007 122.49981202 -101 130.625 C-103.84928161 134.00852191 -107.25915419 136.64375296 -111 139 C-111.66 139 -112.32 139 -113 139 C-113 139.66 -113 140.32 -113 141 C-114.57421875 142.55078125 -114.57421875 142.55078125 -116.6875 144.3125 C-118.98621935 146.23892206 -121.15252148 148.15730438 -123.2421875 150.3125 C-126.75934397 153.73998393 -130.54986401 156.69394637 -134.4375 159.6875 C-135.23881348 160.30761963 -136.04012695 160.92773926 -136.86572266 161.56665039 C-142.01325068 165.52908803 -147.22804644 169.37126391 -152.54003906 173.10913086 C-157.66346207 176.7250237 -162.67841431 180.47774333 -167.6875 184.25 C-176.62885244 190.98165429 -185.62175919 197.6394583 -194.64111328 204.26611328 C-198.59679609 207.17371619 -202.54822094 210.08709487 -206.5 213 C-211.23620449 216.49111479 -215.97321522 219.98109802 -220.71484375 223.46484375 C-228.83971746 229.43743304 -236.93940618 235.44087274 -245 241.5 C-254.61967836 248.73108703 -264.30163726 255.87495747 -274 263 C-283.0252491 269.63321194 -292.04882521 276.26699406 -301 283 C-309.1498895 289.13028521 -317.3602261 295.17710259 -325.57666016 301.21777344 C-330.34093393 304.72162177 -335.10093401 308.2312749 -339.86108398 311.74072266 C-343.89133107 314.71151682 -347.92394483 317.67900229 -351.9609375 320.640625 C-361.05945087 327.32059168 -370.09595916 334.06220157 -379 341 C-379.66 340.67 -380.32 340.34 -381 340 C-376.87911351 335.76321358 -372.64289702 331.7431955 -368.16796875 327.8828125 C-365.75157049 325.7842468 -363.37470976 323.645603 -361 321.5 C-358.04130249 318.82951656 -355.07073528 316.17701942 -352.0625 313.5625 C-348.83440488 310.75177475 -345.66261557 307.884201 -342.5 305 C-338.71337002 301.54671847 -334.8952368 298.13900949 -331.02734375 294.77734375 C-328.66510827 292.70640513 -326.33204147 290.60487152 -324 288.5 C-321.01937279 285.81016569 -318.02754767 283.13689636 -315 280.5 C-310.28298716 276.38918961 -305.64361111 272.19332155 -301 268 C-295.72014424 263.23213025 -290.42708194 258.48487782 -285.0625 253.8125 C-282.69035571 251.72788836 -280.34443935 249.61571356 -278 247.5 C-274.38323655 244.23609152 -270.73610392 241.01209051 -267.0625 237.8125 C-263.8248667 234.9673071 -260.6331371 232.07146164 -257.43359375 229.18359375 C-255.32488854 227.29151315 -253.20080199 225.42094242 -251.0625 223.5625 C-247.83440488 220.75177475 -244.66261557 217.884201 -241.5 215 C-237.71337002 211.54671847 -233.8952368 208.13900949 -230.02734375 204.77734375 C-227.66510827 202.70640513 -225.33204147 200.60487152 -223 198.5 C-220.01937279 195.81016569 -217.02754767 193.13689636 -214 190.5 C-209.28298716 186.38918961 -204.64361111 182.19332155 -200 178 C-194.72014424 173.23213025 -189.42708194 168.48487782 -184.0625 163.8125 C-181.69035571 161.72788836 -179.34443935 159.61571356 -177 157.5 C-174.01937279 154.81016569 -171.02754767 152.13689636 -168 149.5 C-163.28298716 145.38918961 -158.64361111 141.19332155 -154 137 C-148.72014424 132.23213025 -143.42708194 127.48487782 -138.0625 122.8125 C-135.69035571 120.72788836 -133.34443935 118.61571356 -131 116.5 C-127.38323655 113.23609152 -123.73610392 110.01209051 -120.0625 106.8125 C-116.8248667 103.9673071 -113.6331371 101.07146164 -110.43359375 98.18359375 C-108.32488854 96.29151315 -106.20080199 94.42094242 -104.0625 92.5625 C-100.83440488 89.75177475 -97.66261557 86.884201 -94.5 84 C-90.71337002 80.54671847 -86.8952368 77.13900949 -83.02734375 73.77734375 C-80.66510827 71.70640513 -78.33204147 69.60487152 -76 67.5 C-73.01937279 64.81016569 -70.02754767 62.13689636 -67 59.5 C-62.28298716 55.38918961 -57.64361111 51.19332155 -53 47 C-47.72014424 42.23213025 -42.42708194 37.48487782 -37.0625 32.8125 C-34.69035571 30.72788836 -32.34443935 28.61571356 -30 26.5 C-26.38459795 23.2373201 -22.7391044 20.0142505 -19.06640625 16.81640625 C-16.67103608 14.71083512 -14.30394858 12.57551312 -11.9375 10.4375 C-8.01067037 6.89303555 -4.03481448 3.42082097 0 0 Z " fill="#ED4213" transform="translate(414,198)"/>
<path d="M0 0 C0.66 0 1.32 0 2 0 C3.796875 2.265625 3.796875 2.265625 5.75 5.25 C6.73226562 6.71179688 6.73226562 6.71179688 7.734375 8.203125 C9 11 9 11 8.3046875 13.21484375 C7.65886719 14.09849609 7.65886719 14.09849609 7 15 C6.46375 15.763125 5.9275 16.52625 5.375 17.3125 C2.82049353 20.20312574 0.06828868 22.61110971 -2.85546875 25.1171875 C-7.63794074 29.31600626 -12.05892844 33.84710576 -16.1875 38.6875 C-20.98130492 44.26735607 -26.28359339 49.36199591 -31.51269531 54.52880859 C-33.68422393 56.67681113 -35.8418261 58.8385856 -38 61 C-39.27074749 62.27091917 -40.54158931 63.54174403 -41.8125 64.8125 C-42.49570312 65.49570312 -43.17890625 66.17890625 -43.8828125 66.8828125 C-45.984375 68.984375 -48.0859375 71.0859375 -50.1875 73.1875 C-50.85072266 73.85080322 -51.51394531 74.51410645 -52.19726562 75.19750977 C-53.6413333 76.64138187 -55.0861655 78.08448932 -56.53125 79.52734375 C-58.55708163 81.55638081 -60.57653007 83.59132618 -62.59375 85.62890625 C-63.8957873 86.94014988 -65.19787155 88.25134689 -66.5 89.5625 C-67.15097656 90.22185547 -67.80195313 90.88121094 -68.47265625 91.56054688 C-71.83762611 94.94251153 -75.21514798 98.08123124 -79 101 C-79.721875 101.721875 -80.44375 102.44375 -81.1875 103.1875 C-83.66254491 105.66254491 -86.19889607 107.98663228 -88.8125 110.3125 C-96.89894007 117.49981202 -96.89894007 117.49981202 -104 125.625 C-106.84928161 129.00852191 -110.25915419 131.64375296 -114 134 C-114.66 134 -115.32 134 -116 134 C-116 134.66 -116 135.32 -116 136 C-117.57421875 137.55078125 -117.57421875 137.55078125 -119.6875 139.3125 C-121.98621935 141.23892206 -124.15252148 143.15730438 -126.2421875 145.3125 C-129.75934397 148.73998393 -133.54986401 151.69394637 -137.4375 154.6875 C-138.23881348 155.30761963 -139.04012695 155.92773926 -139.86572266 156.56665039 C-145.01325068 160.52908803 -150.22804644 164.37126391 -155.54003906 168.10913086 C-160.66346207 171.7250237 -165.67841431 175.47774333 -170.6875 179.25 C-179.61877531 185.97406754 -188.60128864 192.62477933 -197.61035156 199.24414062 C-208.77609156 207.44847267 -219.93906383 215.65462301 -231 224 C-231.66 223.67 -232.32 223.34 -233 223 C-232.21496094 222.29875 -231.42992187 221.5975 -230.62109375 220.875 C-225.36470986 216.14224376 -220.32952531 211.43440194 -215.7578125 206.0234375 C-208.95101412 198.18805625 -200.37299008 188.35851506 -190.8046875 184 C-188.84850741 183.13896846 -188.84850741 183.13896846 -188.06835938 181.12866211 C-186.96729942 178.93484544 -185.85624027 177.63800235 -184.1015625 175.94140625 C-183.53953125 175.39033203 -182.9775 174.83925781 -182.3984375 174.27148438 C-181.81320313 173.70751953 -181.22796875 173.14355469 -180.625 172.5625 C-176.80898597 168.86147746 -173.30483013 165.1756493 -170 161 C-168.84383525 159.92365955 -167.6559508 158.8802877 -166.4375 157.875 C-162.26926538 154.334748 -158.46211163 150.50119081 -154.68139648 146.55615234 C-153.49033002 145.33453476 -152.24876586 144.16257158 -151 143 C-150.34 143 -149.68 143 -149 143 C-148.73896484 142.41444336 -148.47792969 141.82888672 -148.20898438 141.22558594 C-146.92607857 138.86392008 -145.54932909 137.29086709 -143.65625 135.390625 C-142.99181885 134.72208496 -142.3273877 134.05354492 -141.64282227 133.36474609 C-140.93569092 132.66687988 -140.22855957 131.96901367 -139.5 131.25 C-138.77675537 130.53279785 -138.05351074 129.8155957 -137.30834961 129.07666016 C-130.08438093 121.985737 -122.55502167 115.95622682 -114.08984375 110.421875 C-108.54266189 106.64771762 -104.15652255 102.17370516 -99.82421875 97.08203125 C-96.72606525 93.54602308 -93.35069265 90.29414088 -90 87 C-89.0925 86.071875 -88.185 85.14375 -87.25 84.1875 C-81.91428571 79 -81.91428571 79 -79 79 C-78.74637695 78.42185547 -78.49275391 77.84371094 -78.23144531 77.24804688 C-76.85894506 74.74249923 -75.31195749 73.05318318 -73.296875 71.03125 C-72.56339844 70.29519531 -71.82992187 69.55914062 -71.07421875 68.80078125 C-69.92373047 67.66189453 -69.92373047 67.66189453 -68.75 66.5 C-67.99847656 65.74074219 -67.24695313 64.98148437 -66.47265625 64.19921875 C-62.51730314 60.25767141 -58.69804201 56.9934427 -54 54 C-52.28922037 52.32401893 -52.28922037 52.32401893 -50.875 50.5 C-46.3699042 45.14014272 -41.37408227 40.29468233 -36.39648438 35.37988281 C-33.08424586 32.10702056 -29.80503518 28.80313434 -26.546875 25.4765625 C-20.58125294 19.41168275 -14.76866175 13.50942882 -7.8671875 8.49609375 C-5.81906729 6.85502672 -4.23411368 5.08203328 -2.5625 3.0625 C-1.716875 2.051875 -0.87125 1.04125 0 0 Z " fill="#711F08" transform="translate(417,203)"/>
<path d="M0 0 C3 1 3 1 4.8059082 4.06005859 C5.48101184 5.41785404 6.14521866 6.78110028 6.80078125 8.1484375 C7.15963913 8.87559967 7.51849701 9.60276184 7.88822937 10.35195923 C9.03915309 12.68844814 10.1762839 15.03132867 11.3125 17.375 C12.80482587 20.42633355 14.30246892 23.47503994 15.80078125 26.5234375 C16.34075241 27.62567657 16.34075241 27.62567657 16.89163208 28.75018311 C19.76622066 34.59367101 22.80170134 40.32602434 26 46 C26.37697021 45.21052979 26.75394043 44.42105957 27.14233398 43.60766602 C34.16273745 28.92669746 41.18756811 14.28145618 49 0 C49.66 0 50.32 0 51 0 C54.87132303 17.32483601 58.73730121 34.65119635 62.5 52 C62.75475098 53.16047852 63.00950195 54.32095703 63.27197266 55.51660156 C63.50190918 56.58362305 63.7318457 57.65064453 63.96875 58.75 C64.16919922 59.67296875 64.36964844 60.5959375 64.57617188 61.546875 C65 64 65 64 65 68 C61.37 68 57.74 68 54 68 C51.36 56.12 48.72 44.24 46 32 C43.74919793 35.37620311 41.93129974 38.90629967 40.0859375 42.51171875 C39.71143463 43.23994339 39.33693176 43.96816803 38.95108032 44.71846008 C37.75736252 47.04060913 36.56615167 49.36403378 35.375 51.6875 C34.56526915 53.26375664 33.75537524 54.83992953 32.9453125 56.41601562 C30.9616495 60.27637509 28.98023363 64.13788034 27 68 C23.5928008 66.97483767 22.87048492 65.78407826 21.0012207 62.66772461 C20.29717867 61.25194661 19.60611277 59.82966697 18.92578125 58.40234375 C18.55647995 57.65287979 18.18717865 56.90341583 17.8066864 56.13124084 C16.63051486 53.73873322 15.47110811 51.33855496 14.3125 48.9375 C13.13975707 46.5346843 11.96368389 44.13353253 10.78617859 41.73304749 C10.05478664 40.23903639 9.32684114 38.74333238 8.60261536 37.24583435 C7.14009683 33.89809917 7.14009683 33.89809917 5 31 C4.68977905 32.57467041 4.68977905 32.57467041 4.37329102 34.18115234 C3.60651401 38.0692653 2.83594137 41.95661784 2.06420898 45.84375 C1.73048684 47.5274635 1.39779973 49.21138249 1.06616211 50.89550781 C0.58978739 53.31369696 0.10971701 55.73112699 -0.37109375 58.1484375 C-0.51904892 58.9036972 -0.66700409 59.65895691 -0.81944275 60.43710327 C-1.88612829 65.77225659 -1.88612829 65.77225659 -3 68 C-6.63 68 -10.26 68 -14 68 C-12.6674342 59.73297719 -11.14487295 51.53616214 -9.43359375 43.33984375 C-9.07516136 41.61139977 -9.07516136 41.61139977 -8.70948792 39.84803772 C-8.20891209 37.43694806 -7.70718505 35.02609713 -7.2043457 32.61547852 C-6.43319032 28.91682971 -5.66654321 25.21726611 -4.90039062 21.51757812 C-4.4117239 19.16661145 -3.92280089 16.81569803 -3.43359375 14.46484375 C-3.20441757 13.35866196 -2.97524139 12.25248016 -2.73912048 11.11277771 C-2.52542313 10.09063675 -2.31172577 9.06849579 -2.09155273 8.01538086 C-1.81081154 6.66735634 -1.81081154 6.66735634 -1.5243988 5.292099 C-1 3 -1 3 0 0 Z " fill="#000000" transform="translate(441,680)"/>
<path d="M0 0 C0.66 0 1.32 0 2 0 C2.99 1.98 3.98 3.96 5 6 C4.43410156 6.55429688 3.86820313 7.10859375 3.28515625 7.6796875 C2.55167969 8.40414062 1.81820312 9.12859375 1.0625 9.875 C0.33160156 10.59429687 -0.39929688 11.31359375 -1.15234375 12.0546875 C-3.05667999 13.87027192 -3.05667999 13.87027192 -4 16 C-4.66 16 -5.32 16 -6 16 C-6.33 16.99 -6.66 17.98 -7 19 C-8.53270571 20.35135503 -10.12776773 21.63253887 -11.75 22.875 C-16.48967911 26.65057115 -20.84841484 30.6454286 -25.125 34.9375 C-25.6931543 35.5051709 -26.26130859 36.0728418 -26.84667969 36.65771484 C-29.7808931 39.55944274 -29.7808931 39.55944274 -32 43 C-32.66 43 -33.32 43 -34 43 C-34.33 43.99 -34.66 44.98 -35 46 C-36.97660986 47.36776871 -38.98056786 48.69628546 -41 50 C-42.82610676 51.56484959 -44.61631761 53.17223892 -46.375 54.8125 C-47.13538574 55.51874512 -47.13538574 55.51874512 -47.91113281 56.23925781 C-49.61178303 57.82156644 -51.30613917 59.41042712 -53 61 C-54.25769757 62.17590418 -55.51551393 63.35168134 -56.7734375 64.52734375 C-59.45966756 67.04010754 -62.14121091 69.55776369 -64.8203125 72.078125 C-67.65840873 74.74628336 -70.50828876 77.40102226 -73.3671875 80.046875 C-74.08036133 80.70913086 -74.79353516 81.37138672 -75.52832031 82.05371094 C-76.88165475 83.30997341 -78.23759275 84.56343969 -79.59667969 85.81347656 C-83.22378813 89.18810057 -86.51380075 92.68189376 -89.69091797 96.48193359 C-91.24271972 98.28146796 -92.91444141 99.80588001 -94.75 101.3125 C-100.78057816 106.4518027 -106.68876436 111.97149957 -111.625 118.1875 C-114.14223654 121.16843801 -116.85546135 123.5498593 -119.81640625 126.07421875 C-123.73012907 129.52585623 -127.34146814 133.28235362 -131 137 C-132.66519239 138.66813964 -134.33216742 140.33450006 -136 142 C-137.41675302 143.41658031 -138.83341028 144.83325639 -140.25 146.25 C-149.75 155.75 -149.75 155.75 -151.99462891 157.99267578 C-153.18188059 159.18108378 -154.36723327 160.37140242 -155.54833984 161.56591797 C-157.8246321 163.86638019 -160.1490004 166.04166994 -162.625 168.125 C-168.8577682 173.51805939 -174.62081942 179.4547241 -180.3046875 185.41796875 C-183.81713693 188.78279349 -187.58638571 191.72203617 -191.4375 194.6875 C-192.63511963 195.6144165 -192.63511963 195.6144165 -193.85693359 196.56005859 C-199.0859181 200.58548863 -204.38329083 204.4919454 -209.77954102 208.28930664 C-216.97533595 213.36047883 -223.97788939 218.69237874 -231 224 C-231.66 223.67 -232.32 223.34 -233 223 C-232.21496094 222.29875 -231.42992187 221.5975 -230.62109375 220.875 C-225.36470986 216.14224376 -220.32952531 211.43440194 -215.7578125 206.0234375 C-208.95101412 198.18805625 -200.37299008 188.35851506 -190.8046875 184 C-188.84850741 183.13896846 -188.84850741 183.13896846 -188.06835938 181.12866211 C-186.96729942 178.93484544 -185.85624027 177.63800235 -184.1015625 175.94140625 C-183.53953125 175.39033203 -182.9775 174.83925781 -182.3984375 174.27148438 C-181.81320313 173.70751953 -181.22796875 173.14355469 -180.625 172.5625 C-176.80898597 168.86147746 -173.30483013 165.1756493 -170 161 C-168.84383525 159.92365955 -167.6559508 158.8802877 -166.4375 157.875 C-162.26926538 154.334748 -158.46211163 150.50119081 -154.68139648 146.55615234 C-153.49033002 145.33453476 -152.24876586 144.16257158 -151 143 C-150.34 143 -149.68 143 -149 143 C-148.73896484 142.41444336 -148.47792969 141.82888672 -148.20898438 141.22558594 C-146.92607857 138.86392008 -145.54932909 137.29086709 -143.65625 135.390625 C-142.99181885 134.72208496 -142.3273877 134.05354492 -141.64282227 133.36474609 C-140.93569092 132.66687988 -140.22855957 131.96901367 -139.5 131.25 C-138.77675537 130.53279785 -138.05351074 129.8155957 -137.30834961 129.07666016 C-130.08438093 121.985737 -122.55502167 115.95622682 -114.08984375 110.421875 C-108.54266189 106.64771762 -104.15652255 102.17370516 -99.82421875 97.08203125 C-96.72606525 93.54602308 -93.35069265 90.29414088 -90 87 C-89.0925 86.071875 -88.185 85.14375 -87.25 84.1875 C-81.91428571 79 -81.91428571 79 -79 79 C-78.74637695 78.42185547 -78.49275391 77.84371094 -78.23144531 77.24804688 C-76.85894506 74.74249923 -75.31195749 73.05318318 -73.296875 71.03125 C-72.56339844 70.29519531 -71.82992187 69.55914062 -71.07421875 68.80078125 C-69.92373047 67.66189453 -69.92373047 67.66189453 -68.75 66.5 C-67.99847656 65.74074219 -67.24695313 64.98148437 -66.47265625 64.19921875 C-62.51730314 60.25767141 -58.69804201 56.9934427 -54 54 C-52.28922037 52.32401893 -52.28922037 52.32401893 -50.875 50.5 C-46.3699042 45.14014272 -41.37408227 40.29468233 -36.39648438 35.37988281 C-33.08424586 32.10702056 -29.80503518 28.80313434 -26.546875 25.4765625 C-20.58125294 19.41168275 -14.76866175 13.50942882 -7.8671875 8.49609375 C-5.81906729 6.85502672 -4.23411368 5.08203328 -2.5625 3.0625 C-1.716875 2.051875 -0.87125 1.04125 0 0 Z " fill="#AD300D" transform="translate(417,203)"/>
<path d="M0 0 C2.57189568 2.98671756 4.21616433 5.13857796 5 9 C4.35933594 9.56847656 3.71867188 10.13695312 3.05859375 10.72265625 C-5.96095589 18.60562891 -5.96095589 18.60562891 -13.9375 27.5 C-16.30533472 30.3701027 -18.94840293 32.6176768 -21.76953125 35.03125 C-26.5728016 39.2709142 -31.43721816 43.65582723 -35 49 C-35.66 49 -36.32 49 -37 49 C-37 49.66 -37 50.32 -37 51 C-38.328125 52.3046875 -38.328125 52.3046875 -40.25 53.875 C-47.11203887 59.69733602 -53.31418688 66.23117307 -59.6015625 72.66015625 C-61.71528898 74.72224446 -63.82668794 76.54531573 -66.1875 78.3125 C-66.86167969 78.82425781 -67.53585937 79.33601563 -68.23046875 79.86328125 C-70 81 -70 81 -72 81 C-72.21011719 81.53882813 -72.42023438 82.07765625 -72.63671875 82.6328125 C-74.51471297 85.8937423 -77.12131671 88.29120371 -79.8125 90.875 C-82.907713 93.86691171 -85.9250351 96.83237222 -88.6484375 100.171875 C-90.60687845 102.5272093 -92.46843307 104.43065817 -94.8125 106.375 C-99.10480964 110.03561124 -103.04910431 113.97813013 -107 118 C-108.66666667 119.66666667 -110.33333333 121.33333333 -112 123 C-112.95363169 123.96434295 -113.90674462 124.92919913 -114.859375 125.89453125 C-115.82290432 126.86719973 -116.78644605 127.83985592 -117.75 128.8125 C-118.24371094 129.31458984 -118.73742187 129.81667969 -119.24609375 130.33398438 C-120.47860601 131.5749385 -121.73705535 132.79003122 -123 134 C-123.33 134 -123.66 134 -124 134 C-124.33 131.69 -124.66 129.38 -125 127 C-127.97 128.98 -130.94 130.96 -134 133 C-132.03699519 129.07399037 -130.22611601 126.90350441 -127 124 C-126.34 124 -125.68 124 -125 124 C-125 123.34 -125 122.68 -125 122 C-122.31735111 120.04898262 -119.70515533 118.32399029 -116.6875 116.9375 C-114.64102129 116.04927159 -114.64102129 116.04927159 -114 113 C-113.34 113 -112.68 113 -112 113 C-111.73356689 112.40832031 -111.46713379 111.81664062 -111.19262695 111.20703125 C-109.97561608 108.95487602 -108.72815965 107.48402403 -106.91796875 105.6875 C-106.31533203 105.08679688 -105.71269531 104.48609375 -105.09179688 103.8671875 C-104.46337891 103.25101562 -103.83496094 102.63484375 -103.1875 102 C-102.57068359 101.38382812 -101.95386719 100.76765625 -101.31835938 100.1328125 C-92.09735448 91 -92.09735448 91 -89 91 C-88.78472656 90.44699219 -88.56945312 89.89398438 -88.34765625 89.32421875 C-86.55739997 86.23667531 -84.09113628 84.13679593 -81.4375 81.8125 C-76.68222915 77.56985512 -72.14929445 73.19092881 -67.7421875 68.58203125 C-66 67 -66 67 -64 67 C-63.74927734 66.42475586 -63.49855469 65.84951172 -63.24023438 65.25683594 C-61.83271173 62.69558804 -60.21829975 60.95942608 -58.15625 58.890625 C-57.02896484 57.75947266 -57.02896484 57.75947266 -55.87890625 56.60546875 C-55.09386719 55.82816406 -54.30882812 55.05085938 -53.5 54.25 C-52.71496094 53.45722656 -51.92992187 52.66445313 -51.12109375 51.84765625 C-50.36957031 51.09871094 -49.61804688 50.34976563 -48.84375 49.578125 C-48.15474609 48.89137695 -47.46574219 48.20462891 -46.75585938 47.49707031 C-45 46 -45 46 -43 46 C-42.74565186 45.41895508 -42.49130371 44.83791016 -42.22924805 44.23925781 C-40.86726505 41.75820358 -39.3568556 40.14481897 -37.33203125 38.171875 C-36.60306641 37.45386719 -35.87410156 36.73585937 -35.12304688 35.99609375 C-34.36056641 35.25488281 -33.59808594 34.51367188 -32.8125 33.75 C-27.85307442 28.90671014 -23.05748772 24.02740546 -18.53881836 18.76806641 C-16.57869027 16.51592495 -14.50306378 14.40574092 -12.375 12.3125 C-11.23804688 11.18908203 -11.23804688 11.18908203 -10.078125 10.04296875 C-9.39234375 9.36878906 -8.7065625 8.69460937 -8 8 C-7.04047988 7.04285493 -6.08189115 6.08477335 -5.125 5.125 C-3.41666667 3.41666667 -1.70833333 1.70833333 0 0 Z " fill="#421204" transform="translate(426,215)"/>
<path d="M0 0 C0.99 0.66 1.98 1.32 3 2 C3.66 0.68 4.32 -0.64 5 -2 C8.3 -2 11.6 -2 15 -2 C15 12.19 15 26.38 15 41 C11.7 41 8.4 41 5 41 C4.505 39.02 4.505 39.02 4 37 C3.56171875 37.3609375 3.1234375 37.721875 2.671875 38.09375 C-3.3473042 42.49802746 -8.6843309 43.04509559 -16 42 C-22.15212832 40.2510672 -26.65614134 36.41177126 -30 31 C-32.94844321 23.79899446 -32.69192249 16.45217014 -30.03515625 9.2109375 C-27.62421246 4.06152547 -24.41645178 0.2975926 -19.125 -1.9375 C-12.10819028 -4.08932165 -6.48256466 -3.30483689 0 0 Z M-19 12 C-20.96132999 15.92265998 -20.34738685 20.71349439 -20 25 C-18.45765699 28.70162323 -16.60997018 31.19501491 -13 33 C-8.12121062 33.84727067 -4.90746608 33.51148088 -0.5625 31.0625 C2.69617267 27.16798876 3.72326339 24.03314706 4 19 C3.39661726 14.47462942 2.43969651 12.50404234 -0.5625 9.0625 C-3.83906512 6.65114034 -6.80459058 6.28335625 -10.8125 6.5 C-14.55931398 7.35641462 -16.37163495 9.24021669 -19 12 Z " fill="#000000" transform="translate(645,707)"/>
<path d="M0 0 C0.33 0.99 0.66 1.98 1 3 C-4.1615774 8.95898184 -9.19939179 14.36894806 -15.5703125 19.05078125 C-20.29139042 22.83826981 -24.42223239 27.27824135 -28.640625 31.60839844 C-30.74094061 33.75850601 -32.87154668 35.87777023 -35 38 C-36.34392238 39.3435776 -37.68765416 40.68734586 -39.03125 42.03125 C-47.96875 50.96875 -47.96875 50.96875 -50.09228516 53.09033203 C-51.64700024 54.64663883 -53.19551427 56.20913837 -54.7421875 57.7734375 C-56.97345132 59.97381877 -59.27228889 62.05555846 -61.625 64.125 C-67.88054243 69.7146601 -73.80944325 75.62680397 -79.61328125 81.68359375 C-81 83 -81 83 -84.25 85.1875 C-87.80008119 87.67330108 -90.39986823 90.5766689 -93.17578125 93.8828125 C-96.25079858 97.45167629 -99.63904413 100.70313015 -103 104 C-103.86625 104.86625 -104.7325 105.7325 -105.625 106.625 C-106.40875 107.40875 -107.1925 108.1925 -108 109 C-108.45890625 109.49371094 -108.9178125 109.98742187 -109.390625 110.49609375 C-109.88046875 111.01300781 -110.3703125 111.52992188 -110.875 112.0625 C-111.52082031 112.76052734 -111.52082031 112.76052734 -112.1796875 113.47265625 C-114.33144469 115.27810059 -116.69291894 116.5166676 -119.14013672 117.87719727 C-122.23849892 119.74768398 -124.90650106 122.06043228 -127.625 124.4375 C-128.22111084 124.95320557 -128.81722168 125.46891113 -129.43139648 126.00024414 C-135.43285816 131.26031624 -141.05597748 136.87884952 -146.62353516 142.59130859 C-148.72978236 144.74686843 -150.86576421 146.87218297 -153 149 C-154.1980872 150.19774611 -155.395989 151.39567769 -156.59375 152.59375 C-184.40625 180.40625 -184.40625 180.40625 -186.28955078 182.28564453 C-187.71033384 183.70967231 -189.11853573 185.1462394 -190.5234375 186.5859375 C-193.60121362 189.58604104 -196.84988298 192.34431136 -200.125 195.125 C-208.55356675 202.35951119 -216.50840489 209.87956527 -223.60546875 218.44921875 C-225.61251722 220.6811466 -227.86285831 222.55790433 -230.19140625 224.4453125 C-232.13138436 226.06678871 -232.13138436 226.06678871 -234.2578125 228.31640625 C-237.42953094 231.42035293 -240.80300414 234.10538116 -244.3125 236.8125 C-244.95767578 237.31458984 -245.60285156 237.81667969 -246.26757812 238.33398438 C-247.84267125 239.55905681 -249.42100316 240.7799632 -251 242 C-251 239 -251 239 -249.5390625 237.17578125 C-248.90742188 236.56089844 -248.27578125 235.94601562 -247.625 235.3125 C-246.99851563 234.68988281 -246.37203125 234.06726563 -245.7265625 233.42578125 C-244 232 -244 232 -242 232 C-241.60385498 231.11707275 -241.60385498 231.11707275 -241.19970703 230.21630859 C-239.95407003 227.91515013 -238.64614847 226.38784954 -236.8046875 224.5390625 C-236.17046875 223.90226563 -235.53625 223.26546875 -234.8828125 222.609375 C-233.88894531 221.62710938 -233.88894531 221.62710938 -232.875 220.625 C-232.235625 219.97789062 -231.59625 219.33078125 -230.9375 218.6640625 C-227.11875144 214.86065028 -223.20642396 211.50660624 -218.79663086 208.40454102 C-216.14891552 206.33465294 -214.12887214 203.83851885 -211.9765625 201.2734375 C-209.61116888 198.55276737 -207.10906261 195.98669109 -204.5625 193.4375 C-203.69753906 192.56996094 -202.83257812 191.70242188 -201.94140625 190.80859375 C-199.75338912 188.67495156 -197.48145173 186.66455955 -195.16796875 184.66796875 C-190.84357132 180.91524879 -186.78583937 176.93385747 -182.75 172.875 C-182.05648437 172.18535156 -181.36296875 171.49570312 -180.6484375 170.78515625 C-177.81439201 167.94568155 -175.14974337 165.19507385 -172.703125 162.0078125 C-172.14109375 161.34523438 -171.5790625 160.68265625 -171 160 C-170.01 160 -169.02 160 -168 160 C-167.76152344 159.43667969 -167.52304688 158.87335938 -167.27734375 158.29296875 C-162.93325715 150.49486834 -154.44697594 144.54097219 -147.54296875 139.10546875 C-144.84863609 136.87467719 -142.44205509 134.50438983 -140 132 C-138.91121861 130.89738746 -137.82130199 129.79589515 -136.73046875 128.6953125 C-136.15538574 128.11507324 -135.58030273 127.53483398 -134.98779297 126.93701172 C-129.97908437 121.89569964 -124.98202177 116.91938803 -119.546875 112.33203125 C-117.80762028 110.87356449 -117.80762028 110.87356449 -115.625 108.5625 C-114 107 -114 107 -112 107 C-111.6596875 106.17242187 -111.6596875 106.17242187 -111.3125 105.328125 C-107.42463826 98.43179881 -99.96033953 92.62265562 -93.75 87.8125 C-89.96422883 84.87793209 -86.90940211 81.81029922 -83.84375 78.14453125 C-79.14557776 72.6799199 -74.09764064 67.26325048 -68.125 63.1875 C-65.00737315 61.0051612 -63.33073863 58.96639461 -61 56 C-59.81054971 54.91640243 -58.59959458 53.85621634 -57.375 52.8125 C-52.30620972 48.48271092 -47.67628794 43.74494469 -43 39 C-41.33333333 37.33333333 -39.66666667 35.66666667 -38 34 C-36.83690095 32.82585618 -35.67416783 31.65134981 -34.51171875 30.4765625 C-19.00017465 14.83207957 -19.00017465 14.83207957 -15 12 C-14.34 12 -13.68 12 -13 12 C-12.75121094 11.42765625 -12.50242187 10.8553125 -12.24609375 10.265625 C-10.81574627 7.66499322 -9.15335326 5.85253401 -7.0625 3.75 C-6.37285156 3.04359375 -5.68320312 2.3371875 -4.97265625 1.609375 C-3 0 -3 0 0 0 Z " fill="#CD3910" transform="translate(417,200)"/>
<path d="M0 0 C3.3 0 6.6 0 10 0 C10.33 13.53 10.66 27.06 11 41 C18.17000348 33.14502614 18.17000348 33.14502614 25 25 C28.234375 24.51171875 28.234375 24.51171875 31.75 24.6875 C33.50570312 24.75517578 33.50570312 24.75517578 35.296875 24.82421875 C36.18890625 24.88222656 37.0809375 24.94023438 38 25 C36.66465724 27.94113469 35.17535119 30.10845169 32.9609375 32.453125 C32.09082031 33.38125 32.09082031 33.38125 31.203125 34.328125 C30.59984375 34.96234375 29.9965625 35.5965625 29.375 36.25 C28.45847656 37.22453125 28.45847656 37.22453125 27.5234375 38.21875 C26.01971926 39.81645063 24.51184263 41.40999149 23 43 C23.4125 43.64324219 23.825 44.28648437 24.25 44.94921875 C27.68174021 50.31897296 31.08278883 55.70683923 34.4375 61.125 C35.45650391 62.76855469 35.45650391 62.76855469 36.49609375 64.4453125 C38 67 38 67 38 68 C33.37785323 68.96443557 29.57604208 69.29500967 25 68 C20.7789097 63.9452784 18.3023294 58.29476269 16 53 C16 52.34 16 51.68 16 51 C12.60891216 53.18500716 11.17217094 54.21238929 10.29296875 58.234375 C10.25816406 59.39453125 10.22335938 60.5546875 10.1875 61.75 C10.13980469 62.92046875 10.09210938 64.0909375 10.04296875 65.296875 C10.02169922 66.63492188 10.02169922 66.63492188 10 68 C6.7 68 3.4 68 0 68 C0 45.56 0 23.12 0 0 Z " fill="#000000" transform="translate(131,680)"/>
<path d="M0 0 C4.29128732 3.63826534 6.65568258 6.5748077 7.44921875 12.1640625 C7.52785156 13.30617188 7.60648438 14.44828125 7.6875 15.625 C7.77386719 16.77226563 7.86023438 17.91953125 7.94921875 19.1015625 C8 22 8 22 7 24 C-2.57 24.33 -12.14 24.66 -22 25 C-19.83333333 30.83333333 -19.83333333 30.83333333 -17 32 C-14.73089029 32.09778166 -12.45871058 32.12975646 -10.1875 32.125 C-8.96417969 32.12757813 -7.74085937 32.13015625 -6.48046875 32.1328125 C-3.50982844 32.01945473 -0.8810519 31.69145246 2 31 C5 36.75 5 36.75 5 39 C-0.32788203 41.63943696 -4.51412104 42.52098386 -10.4375 42.4375 C-11.18741211 42.42992676 -11.93732422 42.42235352 -12.70996094 42.41455078 C-19.1745703 42.22143009 -23.7308535 41.09129138 -28.5078125 36.57421875 C-34.09984691 30.39102642 -34.45121238 24.47780891 -34.30859375 16.44921875 C-33.72943871 9.97587825 -31.36449842 6.02812013 -26.6875 1.625 C-18.81968312 -4.53533322 -8.60079897 -4.64111636 0 0 Z M-20 9 C-22.42805648 12.17954749 -22.42805648 12.17954749 -23 16 C-16.4 16 -9.8 16 -3 16 C-3.50378619 10.49176833 -3.50378619 10.49176833 -5.1875 8.1875 C-10.43299882 4.75079388 -14.82575253 6.07118068 -20 9 Z " fill="#000000" transform="translate(113,707)"/>
<path d="M0 0 C3.76422619 3.38045476 5.76276213 6.05104852 7 11 C7 15.29 7 19.58 7 24 C-2.9 24 -12.8 24 -23 24 C-20.01695036 30.7226499 -20.01695036 30.7226499 -17 32 C-14.91854396 32.09774794 -12.83374453 32.12975741 -10.75 32.125 C-9.07164062 32.12886719 -9.07164062 32.12886719 -7.359375 32.1328125 C-4.15392456 32.00608539 -1.14755311 31.6008965 2 31 C3.61949011 33.57213134 4.04408751 34.67669159 3.625 37.75 C3.41875 38.4925 3.2125 39.235 3 40 C-4.53405855 42.93382342 -13.7252647 43.31868382 -21.609375 41.34765625 C-27.12186348 38.85848994 -31.57590333 34.53070972 -33.84765625 28.8984375 C-35.67206448 22.05992717 -35.24041067 15.28708828 -32.75 8.6875 C-29.26111711 3.32957271 -24.903055 -0.8396323 -18.6875 -2.6875 C-11.91919547 -3.47451215 -5.99697682 -3.53636159 0 0 Z M-19 8 C-22.38571617 11.41294668 -22.38571617 11.41294668 -23 16 C-16.4 16 -9.8 16 -3 16 C-3.50378619 10.49176833 -3.50378619 10.49176833 -5.1875 8.1875 C-9.78787576 5.17346071 -14.21802974 5.71297075 -19 8 Z " fill="#000000" transform="translate(546,707)"/>
<path d="M0 0 C5.66552926 4.28675001 6.88715471 9.30728945 7.87109375 16.1328125 C8 19 8 19 7 24 C-2.9 24 -12.8 24 -23 24 C-20.01695036 30.7226499 -20.01695036 30.7226499 -17 32 C-14.73089029 32.09778166 -12.45871058 32.12975646 -10.1875 32.125 C-8.96417969 32.12757813 -7.74085938 32.13015625 -6.48046875 32.1328125 C-3.50982844 32.01945473 -0.8810519 31.69145246 2 31 C5 36.75 5 36.75 5 39 C-3.00195391 43.00097695 -12.96930273 43.58138284 -21.63671875 41.30859375 C-26.96274325 38.8839845 -30.53647752 34.98888393 -33.109375 29.734375 C-35.22672295 23.23374532 -35.27459214 14.7951787 -32.4375 8.5 C-29.27781318 3.31544347 -25.17382739 -0.13046904 -19.5625 -2.375 C-12.44955692 -3.62288475 -6.36077855 -3.65350504 0 0 Z M-20 9 C-22.42805648 12.17954749 -22.42805648 12.17954749 -23 16 C-16.4 16 -9.8 16 -3 16 C-3.50378619 10.49176833 -3.50378619 10.49176833 -5.1875 8.1875 C-10.43299882 4.75079388 -14.82575253 6.07118068 -20 9 Z " fill="#000000" transform="translate(730,707)"/>
<path d="M0 0 C5.48959693 4.51366859 9.39382264 9.89221042 10.23828125 17.0078125 C10.48253031 23.97533841 9.02484157 30.52358255 4.3515625 35.89453125 C-1.8784204 41.48519276 -7.51268218 42.45635284 -15.76953125 42.31640625 C-21.68985186 41.73654413 -25.30406551 39.39443503 -29.8125 35.6875 C-34.92100241 29.4113399 -35.55808413 24.12896867 -35.34765625 16.16015625 C-34.67721159 10.06588959 -32.48177445 6.51545114 -28.25 2.1875 C-19.16913291 -3.92462208 -9.95867112 -4.76947851 0 0 Z M-23 12 C-24.74905779 17.24717336 -24.66979417 22.19155575 -22.75 27.375 C-20.45488498 30.86076914 -20.45488498 30.86076914 -17 33 C-13.88911693 33.52528982 -11.10508219 33.5877477 -8 33 C-3.84721699 29.9958591 -1.98240615 27.01027136 -1 22 C-0.90890493 16.31794494 -2.30411347 12.43506384 -6 8 C-8.3201862 6.29853012 -9.9710636 6.00514425 -12.8125 5.5 C-17.32125936 6.20725637 -20.01501681 8.62030829 -23 12 Z " fill="#000000" transform="translate(339,707)"/>
<path d="M0 0 C5.48959693 4.51366859 9.39382264 9.89221042 10.23828125 17.0078125 C10.48253031 23.97533841 9.02484157 30.52358255 4.3515625 35.89453125 C-1.87694616 41.48386981 -7.51583669 42.4670353 -15.7734375 42.30859375 C-22.9924556 41.61815497 -27.23616771 38.34137352 -31.7734375 32.87890625 C-35.83417699 26.6584741 -35.69687372 20.20393207 -35 13 C-33.343437 7.09849431 -30.08606573 3.42331348 -25 0 C-16.64514361 -4.29876429 -8.41033415 -4.02793781 0 0 Z M-23 12 C-24.74905779 17.24717336 -24.66979417 22.19155575 -22.75 27.375 C-20.45488498 30.86076914 -20.45488498 30.86076914 -17 33 C-13.88911693 33.52528982 -11.10508219 33.5877477 -8 33 C-3.84721699 29.9958591 -1.98240615 27.01027136 -1 22 C-0.90890493 16.31794494 -2.30411347 12.43506384 -6 8 C-12.20967838 3.59313147 -18.51348933 6.6161872 -23 12 Z " fill="#000000" transform="translate(262,707)"/>
<path d="M0 0 C4.12793807 2.38150273 6.29690727 5.08488844 7.84545898 9.61816406 C8.41223385 12.78006318 8.36081729 15.83558074 8.34765625 19.046875 C8.3462413 19.7292926 8.34482635 20.41171021 8.34336853 21.11480713 C8.33779084 23.28491684 8.32524254 25.4549217 8.3125 27.625 C8.30748211 29.10025892 8.30291971 30.57551947 8.29882812 32.05078125 C8.28782875 35.65888798 8.27057953 39.26693375 8.25 42.875 C4.62 42.875 0.99 42.875 -2.75 42.875 C-2.76981934 42.01745117 -2.78963867 41.15990234 -2.81005859 40.27636719 C-2.88829521 37.08552358 -2.97499343 33.8950526 -3.06738281 30.70458984 C-3.10559338 29.32544757 -3.14046002 27.94620833 -3.171875 26.56689453 C-3.21769624 24.58083033 -3.27666263 22.59508321 -3.3359375 20.609375 C-3.38306885 18.81838379 -3.38306885 18.81838379 -3.43115234 16.99121094 C-3.73335703 14.03765765 -4.06185437 12.29321287 -5.75 9.875 C-8.52135894 8.68988917 -8.52135894 8.68988917 -11.75 8.875 C-16.21481463 11.15118001 -18.53541607 13.42709489 -20.75 17.875 C-21.24705774 20.76533449 -21.24705774 20.76533449 -21.26171875 23.83203125 C-21.29716797 24.94384766 -21.33261719 26.05566406 -21.36914062 27.20117188 C-21.40297852 28.9269043 -21.40297852 28.9269043 -21.4375 30.6875 C-21.47166016 31.85732422 -21.50582031 33.02714844 -21.54101562 34.23242188 C-21.62331637 37.11294788 -21.68833933 39.99395828 -21.75 42.875 C-25.38 42.875 -29.01 42.875 -32.75 42.875 C-32.75 28.685 -32.75 14.495 -32.75 -0.125 C-29.12 -0.125 -25.49 -0.125 -21.75 -0.125 C-21.42 1.525 -21.09 3.175 -20.75 4.875 C-20.193125 4.25625 -19.63625 3.6375 -19.0625 3 C-13.43420864 -2.17194341 -7.00167966 -2.1005039 0 0 Z " fill="#000000" transform="translate(208.75,705.125)"/>
<path d="M0 0 C15.18 0 30.36 0 46 0 C46 3.3 46 6.6 46 10 C40.39 10 34.78 10 29 10 C29 29.14 29 48.28 29 68 C25.37 68 21.74 68 18 68 C18 48.86 18 29.72 18 10 C12.06 10 6.12 10 0 10 C0 6.7 0 3.4 0 0 Z " fill="#000000" transform="translate(34,680)"/>
<path d="M0 0 C3.28505199 1.73549916 5.1718113 2.73717886 7.3125 5.75 C9.62119355 13.61270366 9.54586954 21.16394433 9.4375 29.3125 C9.42847656 30.60736328 9.41945313 31.90222656 9.41015625 33.23632812 C9.38675094 36.40774771 9.35396228 39.57877373 9.3125 42.75 C5.6825 42.75 2.0525 42.75 -1.6875 42.75 C-1.70731934 41.92798096 -1.72713867 41.10596191 -1.74755859 40.2590332 C-1.84294603 36.52653874 -1.95257089 32.7945933 -2.0625 29.0625 C-2.0934375 27.76892578 -2.124375 26.47535156 -2.15625 25.14257812 C-2.19492187 23.89541016 -2.23359375 22.64824219 -2.2734375 21.36328125 C-2.32056885 19.64298706 -2.32056885 19.64298706 -2.36865234 17.88793945 C-2.68627495 14.76205632 -3.21143447 12.51817317 -4.6875 9.75 C-8.35034886 8.41805496 -10.19936766 8.577718 -13.875 9.875 C-17.0234554 11.97397027 -18.03722442 13.38082353 -19.6875 16.75 C-20.18539207 19.73826823 -20.18539207 19.73826823 -20.19921875 22.92578125 C-20.23466797 24.08271484 -20.27011719 25.23964844 -20.30664062 26.43164062 C-20.34047852 28.22891602 -20.34047852 28.22891602 -20.375 30.0625 C-20.40916016 31.28001953 -20.44332031 32.49753906 -20.47851562 33.75195312 C-20.56084817 36.75121014 -20.63004921 39.75018014 -20.6875 42.75 C-24.3175 42.75 -27.9475 42.75 -31.6875 42.75 C-31.6875 28.56 -31.6875 14.37 -31.6875 -0.25 C-28.3875 -0.25 -25.0875 -0.25 -21.6875 -0.25 C-21.0275 1.07 -20.3675 2.39 -19.6875 3.75 C-18.759375 3.110625 -17.83125 2.47125 -16.875 1.8125 C-11.18087131 -1.87193621 -6.4250814 -2.17799369 0 0 Z " fill="#000000" transform="translate(594.6875,705.25)"/>
<path d="M0 0 C0.66 0 1.32 0 2 0 C2.33 0.99 2.66 1.98 3 3 C2.43410156 3.55429688 1.86820313 4.10859375 1.28515625 4.6796875 C0.55167969 5.40414062 -0.18179688 6.12859375 -0.9375 6.875 C-2.03384766 7.95394531 -2.03384766 7.95394531 -3.15234375 9.0546875 C-5.05667999 10.87027192 -5.05667999 10.87027192 -6 13 C-6.66 13 -7.32 13 -8 13 C-8.33 13.99 -8.66 14.98 -9 16 C-10.53270571 17.35135503 -12.12776773 18.63253887 -13.75 19.875 C-18.48967911 23.65057115 -22.84841484 27.6454286 -27.125 31.9375 C-27.6931543 32.5051709 -28.26130859 33.0728418 -28.84667969 33.65771484 C-31.7808931 36.55944274 -31.7808931 36.55944274 -34 40 C-34.66 40 -35.32 40 -36 40 C-36.33 40.99 -36.66 41.98 -37 43 C-38.97660986 44.36776871 -40.98056786 45.69628546 -43 47 C-44.82610676 48.56484959 -46.61631761 50.17223892 -48.375 51.8125 C-49.13538574 52.51874512 -49.13538574 52.51874512 -49.91113281 53.23925781 C-51.61178303 54.82156644 -53.30613917 56.41042712 -55 58 C-56.25769757 59.17590418 -57.51551393 60.35168134 -58.7734375 61.52734375 C-61.45966756 64.04010754 -64.14121091 66.55776369 -66.8203125 69.078125 C-69.65840873 71.74628336 -72.50828876 74.40102226 -75.3671875 77.046875 C-76.08036133 77.70913086 -76.79353516 78.37138672 -77.52832031 79.05371094 C-78.88165475 80.30997341 -80.23759275 81.56343969 -81.59667969 82.81347656 C-85.22378813 86.18810057 -88.51380075 89.68189376 -91.69091797 93.48193359 C-93.24271972 95.28146796 -94.91444141 96.80588001 -96.75 98.3125 C-102.78057816 103.4518027 -108.68876436 108.97149957 -113.625 115.1875 C-116.14223654 118.16843801 -118.85546135 120.5498593 -121.81640625 123.07421875 C-125.73012907 126.52585623 -129.34146814 130.28235362 -133 134 C-134.66519239 135.66813964 -136.33216742 137.33450006 -138 139 C-139.41675302 140.41658031 -140.83341028 141.83325639 -142.25 143.25 C-151.75 152.75 -151.75 152.75 -153.99462891 154.99267578 C-155.18188059 156.18108378 -156.36723327 157.37140242 -157.54833984 158.56591797 C-159.8246321 160.86638019 -162.1490004 163.04166994 -164.625 165.125 C-170.84545339 170.5074037 -176.60862149 176.42767014 -182.26953125 182.390625 C-185.96614583 185.92329816 -189.95376939 189.00493581 -194 192.125 C-194.7940625 192.74503906 -195.588125 193.36507812 -196.40625 194.00390625 C-200.15449785 196.90879833 -203.83768424 199.70065621 -208 202 C-205.0715841 195.36323834 -199.13415338 190.76273549 -193.4375 186.5 C-189.78709646 183.73736467 -186.93655648 180.80555821 -184.0078125 177.3046875 C-181.47348167 174.39563072 -178.78855362 171.6661073 -176.0625 168.9375 C-175.58449951 168.45514893 -175.10649902 167.97279785 -174.61401367 167.47583008 C-171.90154476 164.77338204 -169.11275191 162.212622 -166.20703125 159.71875 C-160.55041142 154.8193102 -155.40227511 149.41309517 -150.18359375 144.05664062 C-149.41402344 143.27611328 -148.64445312 142.49558594 -147.8515625 141.69140625 C-147.15885254 140.98185791 -146.46614258 140.27230957 -145.75244141 139.54125977 C-144 138 -144 138 -142 138 C-142 137.34 -142 136.68 -142 136 C-140.373558 134.27190537 -138.71354912 132.63886659 -137 131 C-135.72645412 129.73188502 -134.45582924 128.46083251 -133.1875 127.1875 C-130.39583333 124.39583333 -127.60416667 121.60416667 -124.8125 118.8125 C-124.14790771 118.14774658 -123.48331543 117.48299316 -122.79858398 116.7980957 C-121.37863146 115.37852867 -119.95716783 113.96047317 -118.53515625 112.54296875 C-116.32475925 110.32576005 -114.12791286 108.0963675 -111.93359375 105.86328125 C-110.43500805 104.34624331 -108.93630744 102.82931886 -107.4375 101.3125 C-106.68275391 100.54099609 -105.92800781 99.76949219 -105.15039062 98.97460938 C-104.41884766 98.23662109 -103.68730469 97.49863281 -102.93359375 96.73828125 C-102.27415771 96.06837158 -101.61472168 95.39846191 -100.93530273 94.70825195 C-99.02821239 93.0249025 -97.2844597 92.07859878 -95 91 C-94.38125 90.38125 -93.7625 89.7625 -93.125 89.125 C-91 87 -91 87 -88.1875 85.25 C-84.85255566 82.89592164 -82.65756005 80.43960661 -80.046875 77.34375 C-63.62695925 58.54231975 -63.62695925 58.54231975 -56 56 C-55.29276371 54.68773514 -54.62939907 53.35132492 -54 52 C-52.65893555 50.43188477 -52.65893555 50.43188477 -51.13671875 48.94140625 C-50.57919922 48.39033203 -50.02167969 47.83925781 -49.44726562 47.27148438 C-48.57618164 46.42553711 -48.57618164 46.42553711 -47.6875 45.5625 C-47.11837891 45.00240234 -46.54925781 44.44230469 -45.96289062 43.86523438 C-44.84219974 42.76255689 -43.71840624 41.66302252 -42.59130859 40.56689453 C-41.55931549 39.5507344 -40.54039374 38.52105805 -39.53759766 37.47607422 C-38.39279891 36.28338297 -37.20042548 35.13668608 -36 34 C-35.34 34 -34.68 34 -34 34 C-33.78601563 33.45988281 -33.57203125 32.91976562 -33.3515625 32.36328125 C-31.51364088 29.14957437 -29.0033152 26.75081385 -26.375 24.1875 C-25.83375488 23.65342529 -25.29250977 23.11935059 -24.73486328 22.5690918 C-21.26263317 19.16659555 -17.71511034 15.88200588 -14.015625 12.7265625 C-11.51634254 10.58570427 -9.07104178 8.38893761 -6.625 6.1875 C-5.37589844 5.06408203 -5.37589844 5.06408203 -4.1015625 3.91796875 C-2.70501453 2.64342404 -1.33693875 1.33693875 0 0 Z " fill="#97290B" transform="translate(419,206)"/>
<path d="M0 0 C0.99 0.99 0.99 0.99 2 2 C1.46890625 2.44730469 0.9378125 2.89460937 0.390625 3.35546875 C-0.31578125 3.96003906 -1.0221875 4.56460938 -1.75 5.1875 C-2.44609375 5.77917969 -3.1421875 6.37085938 -3.859375 6.98046875 C-6.08114063 8.97722414 -6.08114063 8.97722414 -7.9609375 11.4921875 C-10.07370299 14.09064621 -12.22288028 15.90205857 -14.875 17.9375 C-21.57000436 23.29170375 -27.49785269 29.32725252 -33.48339844 35.45117188 C-35.63814852 37.65170867 -37.81895412 39.82554339 -40 42 C-41.27100513 43.27066152 -42.5418213 44.54151205 -43.8125 45.8125 C-52.1875 54.1875 -52.1875 54.1875 -54.18774414 56.18383789 C-55.69584275 57.69518715 -57.19134592 59.21909197 -58.68359375 60.74609375 C-61.03449781 63.033567 -63.48053118 65.04132079 -66.0625 67.0625 C-70.41982991 70.58733192 -74.47740319 74.28500284 -78.4375 78.25 C-78.9332251 78.74508057 -79.4289502 79.24016113 -79.93969727 79.75024414 C-82.10435168 81.94738867 -84.12542693 84.16077892 -86.0234375 86.59375 C-88.19167984 89.23334937 -90.49534115 91.15221388 -93.1875 93.25 C-98.50413762 97.50898874 -103.27547687 102.10227643 -108 107 C-109.66666667 108.66666667 -111.33333333 110.33333333 -113 112 C-113.59296875 112.60457031 -114.1859375 113.20914063 -114.796875 113.83203125 C-118.72298041 117.81139778 -122.75204262 121.56560838 -126.98828125 125.2109375 C-131.31502178 129.05879606 -135.30887176 133.26095646 -139.34375 137.41015625 C-142.21641833 140.21100788 -145.21280536 142.77022311 -148.3125 145.3125 C-148.86228516 145.76689453 -149.41207031 146.22128906 -149.97851562 146.68945312 C-151.31712216 147.79525852 -152.65829231 148.89795939 -154 150 C-154 147 -154 147 -152.64233398 145.27001953 C-152.01657471 144.64724121 -151.39081543 144.02446289 -150.74609375 143.3828125 C-150.05580078 142.69316406 -149.36550781 142.00351562 -148.65429688 141.29296875 C-147.55698242 140.21982422 -147.55698242 140.21982422 -146.4375 139.125 C-145.38079102 138.06345703 -145.38079102 138.06345703 -144.30273438 136.98046875 C-141.0580457 133.76867554 -137.85617413 130.78151347 -134.09765625 128.1796875 C-130.85871974 126.17944342 -130.85871974 126.17944342 -129 123 C-128.34 123 -127.68 123 -127 123 C-126.79632813 122.47019531 -126.59265625 121.94039063 -126.3828125 121.39453125 C-124.39895278 117.95920354 -121.69752332 115.44908248 -118.875 112.6875 C-118.33101563 112.14416016 -117.78703125 111.60082031 -117.2265625 111.04101562 C-114.28164676 108.12706279 -111.2672099 105.34077939 -108.125 102.640625 C-102.7235697 97.96558498 -97.80570914 92.81843313 -92.828125 87.70117188 C-92.10367188 86.96576172 -91.37921875 86.23035156 -90.6328125 85.47265625 C-89.98199707 84.80500244 -89.33118164 84.13734863 -88.66064453 83.44946289 C-87 82 -87 82 -85 82 C-84.505 80.515 -84.505 80.515 -84 79 C-83.195625 78.690625 -82.39125 78.38125 -81.5625 78.0625 C-78.41907549 76.75912886 -78.44000538 75.94925143 -77 73 C-75.44702148 71.25170898 -75.44702148 71.25170898 -73.62109375 69.49609375 C-72.95142578 68.84310303 -72.28175781 68.1901123 -71.59179688 67.51733398 C-70.88087891 66.83098877 -70.16996094 66.14464355 -69.4375 65.4375 C-63.8537899 59.96856617 -58.77166776 54.45316931 -53.93359375 48.31640625 C-50.97136057 44.76771075 -47.54436797 41.94373951 -44 39 C-42.32735837 37.50666556 -40.66098061 36.00629386 -39 34.5 C-35.38323655 31.23609152 -31.73610392 28.01209051 -28.0625 24.8125 C-25.69035571 22.72788836 -23.34443935 20.61571356 -21 18.5 C-16.70315292 14.62363949 -12.36471669 10.79956413 -8 7 C-6.49968066 5.68786505 -4.99967399 4.37537249 -3.5 3.0625 C-2.33333333 2.04166667 -1.16666667 1.02083333 0 0 Z M-157 150 C-156.01 150.495 -156.01 150.495 -155 151 C-155.63808594 151.62648438 -156.27617187 152.25296875 -156.93359375 152.8984375 C-157.75988281 153.71570313 -158.58617187 154.53296875 -159.4375 155.375 C-160.26121094 156.18710937 -161.08492188 156.99921875 -161.93359375 157.8359375 C-164.03434672 159.82348515 -164.03434672 159.82348515 -165 162 C-166.051875 162.556875 -166.051875 162.556875 -167.125 163.125 C-170.37841848 165.24679466 -172.36189291 167.60839729 -174.8515625 170.5546875 C-180.38656601 176.85452786 -186.41283178 182.89094701 -192.8125 188.3125 C-196.97238321 191.85805447 -200.81928483 195.70544717 -204.6875 199.5625 C-205.32985596 200.20034424 -205.97221191 200.83818848 -206.6340332 201.49536133 C-209.46894634 204.3391209 -212.20868896 207.18402879 -214.73828125 210.3046875 C-216.62874077 212.55756672 -218.08183609 213.98519763 -220.5 215.5625 C-226.4626203 219.83287187 -231.41113474 225.24802003 -236.51293945 230.48364258 C-237.87631658 231.87387987 -239.26137371 233.24276937 -240.6484375 234.609375 C-242.88251026 236.8805586 -244.8971501 239.24312042 -246.9375 241.6875 C-252.71003221 248.18159874 -260.18973467 254.09486734 -268 258 C-266.62350597 254.8135113 -265.12970124 253.01632443 -262.453125 250.828125 C-257.61086918 246.7294857 -253.19608946 242.27019095 -248.75 237.75 C-247.18468099 236.15910388 -245.61705731 234.57047132 -244.046875 232.984375 C-243.36463867 232.29053711 -242.68240234 231.59669922 -241.97949219 230.88183594 C-236.84431759 226 -236.84431759 226 -234 226 C-234 225.34 -234 224.68 -234 224 C-232.91083382 222.84317019 -231.8086502 221.69718037 -230.66259766 220.59667969 C-228.69218809 218.70439209 -226.77531157 216.76387839 -224.85546875 214.8203125 C-223.29954101 213.25514685 -221.7435498 211.6900443 -220.1875 210.125 C-219.41857422 209.34769531 -218.64964844 208.57039063 -217.85742188 207.76953125 C-213.66693107 203.56135904 -209.39396954 199.54616531 -204.89135742 195.67529297 C-201.7959623 192.93350888 -198.94342315 189.96344639 -196.0625 187 C-191.59100213 182.4514794 -187.09556801 178.35635133 -181.94921875 174.5703125 C-179.17393086 172.33450943 -176.98190317 169.72432266 -174.69921875 167 C-172.93254936 164.92060982 -171.09497927 162.95074169 -169.1875 161 C-168.62417969 160.4225 -168.06085938 159.845 -167.48046875 159.25 C-166 158 -166 158 -164 158 C-163.773125 157.4225 -163.54625 156.845 -163.3125 156.25 C-161.66961977 153.4336339 -159.60466773 151.91922886 -157 150 Z " fill="#DF3E11" transform="translate(414,198)"/>
<path d="M0 0 C-2.67055128 6.00874039 -6.95752409 9.91894922 -11.85546875 14.1171875 C-16.63794074 18.31600626 -21.05892844 22.84710576 -25.1875 27.6875 C-29.98130492 33.26735607 -35.28359339 38.36199591 -40.51269531 43.52880859 C-42.68422393 45.67681113 -44.8418261 47.8385856 -47 50 C-48.27074749 51.27091917 -49.54158931 52.54174403 -50.8125 53.8125 C-51.49570312 54.49570312 -52.17890625 55.17890625 -52.8828125 55.8828125 C-54.984375 57.984375 -57.0859375 60.0859375 -59.1875 62.1875 C-59.85072266 62.85080322 -60.51394531 63.51410645 -61.19726562 64.19750977 C-62.6413333 65.64138187 -64.0861655 67.08448932 -65.53125 68.52734375 C-67.55708163 70.55638081 -69.57653007 72.59132618 -71.59375 74.62890625 C-72.8957873 75.94014988 -74.19787155 77.25134689 -75.5 78.5625 C-76.15097656 79.22185547 -76.80195313 79.88121094 -77.47265625 80.56054688 C-80.83762611 83.94251153 -84.21514798 87.08123124 -88 90 C-88.721875 90.721875 -89.44375 91.44375 -90.1875 92.1875 C-92.66254491 94.66254491 -95.19889607 96.98663228 -97.8125 99.3125 C-105.89894007 106.49981202 -105.89894007 106.49981202 -113 114.625 C-115.84928161 118.00852191 -119.25915419 120.64375296 -123 123 C-123.66 123 -124.32 123 -125 123 C-125 123.66 -125 124.32 -125 125 C-126.57421875 126.55078125 -126.57421875 126.55078125 -128.6875 128.3125 C-130.97033803 130.22561285 -133.12048243 132.12521567 -135.1875 134.2734375 C-138.98291172 137.95287831 -143.12059616 141.09992018 -147.3125 144.3125 C-148.14845703 144.95767578 -148.98441406 145.60285156 -149.84570312 146.26757812 C-151.89471232 147.84824236 -153.94617444 149.42560229 -156 151 C-156 150.01 -156 149.02 -156 148 C-154.53354077 146.72906867 -153.06009874 145.46357667 -151.52734375 144.2734375 C-149.68265008 142.73540646 -148.42345591 140.92166548 -147 139 C-146.34 139 -145.68 139 -145 139 C-144.77570313 138.45085937 -144.55140625 137.90171875 -144.3203125 137.3359375 C-140.22703418 130.09398355 -132.50293908 124.19513608 -125.8125 119.43359375 C-123.19627943 117.3642986 -121.19307574 114.90281142 -119.0546875 112.35546875 C-116.43630877 109.35379123 -113.67759766 106.51656948 -110.875 103.6875 C-110.37194336 103.17171387 -109.86888672 102.65592773 -109.35058594 102.12451172 C-106.43265065 99.19793212 -103.55034609 97.07650494 -100 95 C-98.36748467 93.39719449 -98.36748467 93.39719449 -96.9375 91.5625 C-92.40670065 86.18528758 -87.39511551 81.3154576 -82.39624023 76.37963867 C-79.07229368 73.09521447 -75.78175113 69.77938166 -72.51171875 66.44140625 C-71.23707322 65.14834478 -69.96233174 63.85537789 -68.6875 62.5625 C-68.06166016 61.91990234 -67.43582031 61.27730469 -66.79101562 60.61523438 C-63.02250759 56.80807498 -59.17548201 53.47742859 -54.79101562 50.39453125 C-52.19310368 48.37172958 -50.23052838 45.93681167 -48.125 43.421875 C-45.31187434 40.21573914 -42.32649811 37.20400873 -39.3125 34.1875 C-38.75344971 33.62409912 -38.19439941 33.06069824 -37.6184082 32.48022461 C-30.11345558 25 -30.11345558 25 -27 25 C-27 24.34 -27 23.68 -27 23 C-25.70703125 21.6953125 -25.70703125 21.6953125 -23.8125 20.125 C-19.87124568 16.77599141 -16.04617808 13.32365724 -12.25 9.8125 C-11.41819214 9.04607178 -11.41819214 9.04607178 -10.56958008 8.26416016 C-8.22931216 6.10026947 -5.94137081 3.93884369 -3.734375 1.63671875 C-2 0 -2 0 0 0 Z " fill="#5F1A07" transform="translate(426,214)"/>
<path d="M0 0 C3.63 0 7.26 0 11 0 C11.07422264 7.72296044 11.12863747 15.44571267 11.16479492 23.16894531 C11.1798702 25.79560971 11.20033366 28.42224899 11.22631836 31.04882812 C11.26275576 34.82688604 11.27973938 38.60461077 11.29296875 42.3828125 C11.30845261 43.55490265 11.32393646 44.7269928 11.33988953 45.93460083 C11.34200137 56.19297762 11.34200137 56.19297762 8 61 C3.7817382 64.90189216 0.68789168 66.14192825 -5 66.125 C-6.299375 66.12886719 -6.299375 66.12886719 -7.625 66.1328125 C-10 66 -10 66 -13 65 C-12.34 61.7 -11.68 58.4 -11 55 C-9.535625 55.020625 -8.07125 55.04125 -6.5625 55.0625 C-5.04167482 55.08392007 -3.51928038 55.07179964 -2 55 C-0.32063825 53.32063825 -0.83212121 51.23489172 -0.79467773 48.92944336 C-0.77473251 47.84839828 -0.75478729 46.76735321 -0.73423767 45.65354919 C-0.71752518 44.4775264 -0.70081268 43.3015036 -0.68359375 42.08984375 C-0.6524221 40.29408653 -0.6524221 40.29408653 -0.62062073 38.46205139 C-0.55499721 34.62059513 -0.49618097 30.77906799 -0.4375 26.9375 C-0.39432695 24.34048733 -0.35071307 21.74348194 -0.30664062 19.14648438 C-0.1993028 12.7643964 -0.09807182 6.38223682 0 0 Z " fill="#000000" transform="translate(674,705)"/>
<path d="M0 0 C1.37478516 0.01740234 1.37478516 0.01740234 2.77734375 0.03515625 C3.69644531 0.04417969 4.61554688 0.05320312 5.5625 0.0625 C6.27277344 0.07410156 6.98304688 0.08570313 7.71484375 0.09765625 C7.81635209 7.96294113 7.88635534 15.82805675 7.93457031 23.69384766 C7.952412 26.36929 7.98195424 29.04387641 8.01660156 31.71923828 C8.06517881 35.56684196 8.0878274 39.41386412 8.10546875 43.26171875 C8.12611389 44.45568268 8.14675903 45.64964661 8.16802979 46.87979126 C8.16974789 53.25297988 8.08879236 57.29443148 3.71484375 62.09765625 C-0.0964502 65.44697518 -3.27762724 66.23755961 -8.28515625 66.22265625 C-9.58453125 66.22652344 -9.58453125 66.22652344 -10.91015625 66.23046875 C-13.28515625 66.09765625 -13.28515625 66.09765625 -16.28515625 65.09765625 C-15.62515625 61.79765625 -14.96515625 58.49765625 -14.28515625 55.09765625 C-10.98515625 55.42765625 -7.68515625 55.75765625 -4.28515625 56.09765625 C-4.27484879 55.41083267 -4.26454132 54.72400909 -4.25392151 54.01637268 C-4.1461003 46.89549768 -4.03148342 39.77475551 -3.9128418 32.65405273 C-3.86941445 29.9932736 -3.82774535 27.33246518 -3.7878418 24.67163086 C-3.73032753 20.8565181 -3.66657957 17.04155383 -3.6015625 13.2265625 C-3.58485001 12.02866592 -3.56813751 10.83076935 -3.55091858 9.59657288 C-3.53097336 8.49550705 -3.51102814 7.39444122 -3.49047852 6.26000977 C-3.47493423 5.28516129 -3.45938995 4.31031281 -3.44337463 3.30592346 C-3.22640073 0.27760056 -3.04086899 0.12995167 0 0 Z " fill="#000000" transform="translate(363.28515625,704.90234375)"/>
<path d="M0 0 C3.63 0 7.26 0 11 0 C11 22.44 11 44.88 11 68 C7.37 68 3.74 68 0 68 C0 45.56 0 23.12 0 0 Z " fill="#000000" transform="translate(282,680)"/>
<path d="M0 0 C-1.32900341 2.95499307 -2.77299793 5.01274778 -5.08203125 7.27734375 C-5.68466797 7.87353516 -6.28730469 8.46972656 -6.90820312 9.08398438 C-7.53662109 9.69564453 -8.16503906 10.30730469 -8.8125 10.9375 C-9.42931641 11.54529297 -10.04613281 12.15308594 -10.68164062 12.77929688 C-11.89696048 13.97653546 -13.11469872 15.17132461 -14.33496094 16.36352539 C-15.74031971 17.74477464 -17.12460695 19.14741489 -18.50390625 20.5546875 C-21.59230445 23.58025444 -24.83451341 26.38539089 -28.125 29.1875 C-28.74503906 29.72052734 -29.36507813 30.25355469 -30.00390625 30.80273438 C-32.6151307 33.03491011 -35.13421821 35.08947881 -38 37 C-36.64729951 33.98510378 -35.13231141 31.87594664 -32.8046875 29.5390625 C-32.17046875 28.90226562 -31.53625 28.26546875 -30.8828125 27.609375 C-30.22023438 26.95453125 -29.55765625 26.2996875 -28.875 25.625 C-28.235625 24.97789062 -27.59625 24.33078125 -26.9375 23.6640625 C-23.05116404 19.79333431 -19.0563393 16.3998874 -14.57080078 13.23974609 C-12.85661177 12.06741928 -12.85661177 12.06741928 -12 10 C-11.34 10 -10.68 10 -10 10 C-9.690625 9.195625 -9.690625 9.195625 -9.375 8.375 C-7.43786251 5.02903524 -4.15282732 0 0 0 Z M-40 37 C-39.01 37.495 -39.01 37.495 -38 38 C-38.99 38.495 -38.99 38.495 -40 39 C-40 38.34 -40 37.68 -40 37 Z M-43 40 C-42.01 40.495 -42.01 40.495 -41 41 C-45.15365343 45.97268368 -49.55449119 50.66259467 -54.125 55.25 C-54.87861816 56.01038574 -54.87861816 56.01038574 -55.64746094 56.78613281 C-58.62050937 59.74745324 -61.72534845 62.38446362 -65 65 C-66.69131097 66.64165245 -68.35341861 68.31348725 -70 70 C-72.93286099 72.96294537 -75.87306723 75.91857629 -78.8125 78.875 C-79.58142578 79.65230469 -80.35035156 80.42960937 -81.14257812 81.23046875 C-85.30793121 85.41339716 -89.55389991 89.40497309 -94.02856445 93.25341797 C-97.56734121 96.38857697 -100.86639696 99.7625818 -104.1875 103.125 C-105.21520508 104.15947266 -105.21520508 104.15947266 -106.26367188 105.21484375 C-109.08030177 108.05044998 -111.89218719 110.88951933 -114.68359375 113.75 C-116.97568889 115.97638583 -119.34446922 117.92657215 -121.875 119.875 C-125.69247196 122.87444225 -129.1335345 125.99351718 -132.4296875 129.5546875 C-134.16025498 131.14749836 -135.86063876 132.04608568 -138 133 C-136.66893869 130.04405374 -135.214922 127.96711134 -132.91796875 125.6875 C-132.31533203 125.08679688 -131.71269531 124.48609375 -131.09179688 123.8671875 C-130.46337891 123.25101562 -129.83496094 122.63484375 -129.1875 122 C-128.57068359 121.38382812 -127.95386719 120.76765625 -127.31835938 120.1328125 C-124.01838442 116.86439947 -120.63866083 113.89194435 -117 111 C-115.92365955 109.84383525 -114.8802877 108.6559508 -113.875 107.4375 C-109.22182754 101.98839015 -104.09657143 97.02891783 -99 92 C-96.37919298 89.38747358 -93.76764883 86.76632884 -91.16796875 84.1328125 C-86.20589828 79.11791893 -81.23518243 74.21672554 -75.859375 69.640625 C-73.10917227 67.21397553 -70.57611823 64.58513769 -68.00390625 61.97265625 C-65.41804739 59.42712267 -62.68677617 57.08015403 -59.93359375 54.71875 C-58.03318809 53.02950053 -56.26713559 51.26474225 -54.5 49.4375 C-50.98121046 45.84557165 -47.09479846 42.90358436 -43 40 Z M-140 133 C-139.34 133.33 -138.68 133.66 -138 134 C-138.45890625 134.44730469 -138.9178125 134.89460938 -139.390625 135.35546875 C-142.05915543 137.98475609 -144.63978233 140.53520301 -146.9375 143.5 C-150.94682797 148.35979148 -155.94202559 152.27425992 -161 156 C-159.48623919 152.43235715 -157.39486871 150.16293713 -154.6484375 147.453125 C-153.79765625 146.60878906 -152.946875 145.76445312 -152.0703125 144.89453125 C-151.18085938 144.02183594 -150.29140625 143.14914062 -149.375 142.25 C-148.4778125 141.36183594 -147.580625 140.47367187 -146.65625 139.55859375 C-144.44192996 137.36783031 -142.22307565 135.18187237 -140 133 Z M-164 157 C-163.34 157.33 -162.68 157.66 -162 158 C-165.38700501 162.35305799 -167.74666162 165.04876003 -173 167 C-173.10570312 167.58910156 -173.21140625 168.17820312 -173.3203125 168.78515625 C-174.32124866 172.04682752 -176.38281079 173.214793 -179.0625 175.25 C-179.98160156 175.95640625 -180.90070313 176.6628125 -181.84765625 177.390625 C-182.91306641 178.18726563 -182.91306641 178.18726563 -184 179 C-184 176 -184 176 -182.48706055 174.13061523 C-181.79394775 173.44684814 -181.10083496 172.76308105 -180.38671875 172.05859375 C-179.63326172 171.31029297 -178.87980469 170.56199219 -178.10351562 169.79101562 C-176.90758789 168.62602539 -176.90758789 168.62602539 -175.6875 167.4375 C-174.90181641 166.65697266 -174.11613281 165.87644531 -173.30664062 165.07226562 C-167.46446595 159.30964397 -167.46446595 159.30964397 -164 157 Z " fill="#83240A" transform="translate(423,209)"/>
<path d="M0 0 C1.05404945 3.98196457 0.84098656 6.98195309 0 11 C-1.01320313 11.14695312 -1.01320313 11.14695312 -2.046875 11.296875 C-2.93890625 11.44640625 -3.8309375 11.5959375 -4.75 11.75 C-5.63171875 11.88921875 -6.5134375 12.0284375 -7.421875 12.171875 C-10.64795998 13.2081326 -11.88342032 14.35923097 -14 17 C-14.63914976 19.98687874 -14.63914976 19.98687874 -14.609375 23.296875 C-14.64160156 24.50214844 -14.67382812 25.70742188 -14.70703125 26.94921875 C-14.72830078 28.83060547 -14.72830078 28.83060547 -14.75 30.75 C-14.77964844 32.01972656 -14.80929687 33.28945313 -14.83984375 34.59765625 C-14.91053951 37.73183485 -14.96324012 40.86526956 -15 44 C-18.63 44 -22.26 44 -26 44 C-26 29.81 -26 15.62 -26 1 C-22.37 1 -18.74 1 -15 1 C-14.67 2.32 -14.34 3.64 -14 5 C-13.236875 4.360625 -12.47375 3.72125 -11.6875 3.0625 C-7.70935607 0.00950582 -4.88502293 -0.10855607 0 0 Z " fill="#000000" transform="translate(773,704)"/>
<path d="M0 0 C0.99 0.495 0.99 0.495 2 1 C1.44175115 4.61682353 0.25399273 5.97916829 -2.5625 8.25 C-7.7780188 12.61343225 -12.80649921 17.18957712 -17 22.5625 C-19.33953118 25.41380362 -21.97280172 27.63855082 -24.76953125 30.03125 C-29.5728016 34.2709142 -34.43721816 38.65582723 -38 44 C-38.66 44 -39.32 44 -40 44 C-40 44.66 -40 45.32 -40 46 C-41.328125 47.3046875 -41.328125 47.3046875 -43.25 48.875 C-50.11203887 54.69733602 -56.31418688 61.23117307 -62.6015625 67.66015625 C-64.71528898 69.72224446 -66.82668794 71.54531573 -69.1875 73.3125 C-69.86167969 73.82425781 -70.53585937 74.33601563 -71.23046875 74.86328125 C-73 76 -73 76 -75 76 C-75.21011719 76.53882813 -75.42023438 77.07765625 -75.63671875 77.6328125 C-77.51471297 80.8937423 -80.12131671 83.29120371 -82.8125 85.875 C-85.907713 88.86691171 -88.9250351 91.83237222 -91.6484375 95.171875 C-93.60687845 97.5272093 -95.46843307 99.43065817 -97.8125 101.375 C-102.10480964 105.03561124 -106.04910431 108.97813013 -110 113 C-111.66529662 114.66803559 -113.33209279 116.3345748 -115 118 C-115.96492618 118.96476132 -116.92976786 119.92960715 -117.89453125 120.89453125 C-120.59635417 123.59635417 -123.29817708 126.29817708 -126 129 C-126.84375 127.359375 -126.84375 127.359375 -127 125 C-125.22622077 122.87389476 -123.5248768 121.10756082 -121.5 119.25 C-120.37053792 118.17121267 -119.24292258 117.09048846 -118.1171875 116.0078125 C-117.29879395 115.22712402 -117.29879395 115.22712402 -116.46386719 114.43066406 C-114.74049386 112.74637992 -113.16966786 110.97379936 -111.625 109.125 C-108.16390057 105.0683498 -104.43728402 101.28759379 -100.6875 97.5 C-100.06375488 96.86336426 -99.44000977 96.22672852 -98.79736328 95.57080078 C-98.20810059 94.98024902 -97.61883789 94.38969727 -97.01171875 93.78125 C-96.48022217 93.24564453 -95.94872559 92.71003906 -95.40112305 92.15820312 C-94 91 -94 91 -92 91 C-91.505 89.515 -91.505 89.515 -91 88 C-90.34 88 -89.68 88 -89 88 C-88.62282837 87.13604614 -88.62282837 87.13604614 -88.23803711 86.25463867 C-86.8392843 83.70731424 -85.2417244 81.98287491 -83.19140625 79.92578125 C-82.07088867 78.80139648 -82.07088867 78.80139648 -80.92773438 77.65429688 C-80.14720703 76.88150391 -79.36667969 76.10871094 -78.5625 75.3125 C-77.78583984 74.52810547 -77.00917969 73.74371094 -76.20898438 72.93554688 C-75.46068359 72.18982422 -74.71238281 71.44410156 -73.94140625 70.67578125 C-73.25763916 69.99427002 -72.57387207 69.31275879 -71.86938477 68.6105957 C-70 67 -70 67 -67 66 C-66.01 64.515 -66.01 64.515 -65 63 C-64.01 63 -63.02 63 -62 63 C-62 62.34 -62 61.68 -62 61 C-60.55541992 59.57666016 -60.55541992 59.57666016 -58.54296875 57.9140625 C-53.89208683 53.95861084 -49.60264174 49.71498253 -45.3125 45.375 C-44.57966797 44.63765625 -43.84683594 43.9003125 -43.09179688 43.140625 C-41.67625762 41.71615087 -40.26166553 40.29073471 -38.84814453 38.86425781 C-36.57264115 36.56891517 -34.28726629 34.28361834 -32 32 C-30.80199761 30.80216907 -29.60408921 29.60424411 -28.40625 28.40625 C-18.9375 18.9375 -9.46875 9.46875 0 0 Z " fill="#200801" transform="translate(429,220)"/>
<path d="M0 0 C3.63 0 7.26 0 11 0 C11 14.19 11 28.38 11 43 C7.37 43 3.74 43 0 43 C0 28.81 0 14.62 0 0 Z " fill="#000000" transform="translate(781,705)"/>
<path d="M0 0 C3.63 0 7.26 0 11 0 C11 14.19 11 28.38 11 43 C7.37 43 3.74 43 0 43 C0 28.81 0 14.62 0 0 Z " fill="#000000" transform="translate(385,705)"/>
<path d="M0 0 C0.99 0.495 0.99 0.495 2 1 C0.66779052 3.99574778 -0.74517453 5.94655019 -3.16796875 8.14453125 C-3.80669922 8.73169922 -4.44542969 9.31886719 -5.10351562 9.92382812 C-5.79123047 10.54708984 -6.47894531 11.17035156 -7.1875 11.8125 C-12.92152853 17.08822289 -18.52452682 22.45630096 -24 28 C-28.17756626 32.22134395 -32.37018696 36.30325801 -36.9140625 40.1328125 C-40.45643744 43.30370243 -43.76075856 46.71997412 -47.08251953 50.11962891 C-49.89684192 52.97935768 -52.7674229 55.69853052 -55.8125 58.3125 C-60.62014411 62.46685658 -65.04526334 66.97375873 -69.5 71.5 C-74.50920469 76.58960926 -79.54022781 81.53004601 -84.95898438 86.18164062 C-88.98496894 89.76842688 -92.71921498 93.65852822 -96.5 97.5 C-101.59887833 102.68072228 -106.71931921 107.72762475 -112.23632812 112.46337891 C-114.59680731 114.51997581 -116.80407799 116.70726671 -119 118.9375 C-119.763125 119.70964844 -120.52625 120.48179687 -121.3125 121.27734375 C-121.869375 121.84582031 -122.42625 122.41429687 -123 123 C-123.66 122.67 -124.32 122.34 -125 122 C-124.54109375 121.55269531 -124.0821875 121.10539062 -123.609375 120.64453125 C-120.94084457 118.01524391 -118.36021767 115.46479699 -116.0625 112.5 C-113.67361582 109.60438281 -111.00253093 107.3293234 -108.15234375 104.8984375 C-105.23074904 102.32149553 -102.53414997 99.54678587 -99.8046875 96.76953125 C-98 95 -98 95 -95.4375 93 C-92.56160626 90.64029232 -90.3101809 87.97872699 -87.8984375 85.15625 C-84.76865117 81.60143096 -81.37861987 78.31592383 -78 75 C-77.32324219 74.30261719 -76.64648438 73.60523438 -75.94921875 72.88671875 C-74 71 -74 71 -71 69.0625 C-67.91485294 66.9414614 -66.30715702 64.91787505 -64 62 C-62.85190989 60.95831824 -61.6825006 59.93994907 -60.5 58.9375 C-56.07952199 55.18426396 -52.05404641 51.0875281 -48.03710938 46.91186523 C-46.72746442 45.57169889 -45.36741776 44.28116526 -44 43 C-43.34 43 -42.68 43 -42 43 C-42 42.34 -42 41.68 -42 41 C-40.37164161 39.27295322 -38.71511696 37.63735347 -37 36 C-35.87232462 34.87768175 -34.74746337 33.75253092 -33.625 32.625 C-31.20833333 30.20833333 -28.79166667 27.79166667 -26.375 25.375 C-25.79411621 24.79403564 -25.21323242 24.21307129 -24.61474609 23.61450195 C-23.2567738 22.25673497 -21.89801024 20.89975943 -20.5390625 19.54296875 C-18.46634776 17.46706522 -16.39998129 15.3852871 -14.3359375 13.30078125 C-13.01567039 11.97130909 -11.695357 10.64188288 -10.375 9.3125 C-9.70726562 8.63638672 -9.03953125 7.96027344 -8.3515625 7.26367188 C-7.70703125 6.61591797 -7.0625 5.96816406 -6.3984375 5.30078125 C-5.81755371 4.71466064 -5.23666992 4.12854004 -4.63818359 3.5246582 C-3 2 -3 2 0 0 Z " fill="#0F0300" transform="translate(431,223)"/>
<path d="M0 0 C0.99 0.495 0.99 0.495 2 1 C-7.0625 10.0625 -16.125 19.125 -25.1875 28.1875 C-25.85072266 28.85080322 -26.51394531 29.51410645 -27.19726562 30.19750977 C-28.6413333 31.64138187 -30.0861655 33.08448932 -31.53125 34.52734375 C-33.55708163 36.55638081 -35.57653007 38.59132618 -37.59375 40.62890625 C-38.8957873 41.94014988 -40.19787155 43.25134689 -41.5 44.5625 C-42.15097656 45.22185547 -42.80195313 45.88121094 -43.47265625 46.56054688 C-46.83762611 49.94251153 -50.21514798 53.08123124 -54 56 C-54.721875 56.721875 -55.44375 57.44375 -56.1875 58.1875 C-58.66254491 60.66254491 -61.19889607 62.98663228 -63.8125 65.3125 C-71.89894007 72.49981202 -71.89894007 72.49981202 -79 80.625 C-81.84928161 84.00852191 -85.25915419 86.64375296 -89 89 C-89.66 89 -90.32 89 -91 89 C-91 89.66 -91 90.32 -91 91 C-92.57421875 92.55078125 -92.57421875 92.55078125 -94.6875 94.3125 C-97.16860631 96.41290746 -99.47223221 98.48296476 -101.75 100.8125 C-103.79381515 102.79954251 -105.3845112 103.93443049 -108 105 C-104.87558137 100.21573398 -101.68212217 96.68500569 -97.31640625 93.0234375 C-92.63968521 88.93820732 -88.35932493 84.41797055 -84 80 C-82.86691406 78.86884766 -82.86691406 78.86884766 -81.7109375 77.71484375 C-79.43813358 75.43876489 -77.1800637 73.14982846 -74.92578125 70.85546875 C-60.74323879 56.47822486 -60.74323879 56.47822486 -53.02734375 50.6484375 C-50.22953977 48.37353715 -48.00569759 45.75243689 -45.6953125 42.99609375 C-40.29934848 36.64278128 -34.13568636 31.33895866 -27.61328125 26.17578125 C-24.90393626 23.92001868 -22.47713233 21.50729528 -20 19 C-17.89427297 17.02058227 -15.75879485 15.07407642 -13.625 13.125 C-8.97022875 8.85379506 -4.41669453 4.51940836 0 0 Z " fill="#4F1605" transform="translate(392,248)"/>
<path d="M0 0 C0 3 0 3 -2.23046875 5.5234375 C-3.20865735 6.48166307 -4.19470881 7.43191209 -5.1875 8.375 C-5.67025391 8.84421875 -6.15300781 9.3134375 -6.65039062 9.796875 C-7.62683975 10.74580005 -8.6058839 11.69206153 -9.58740234 12.63574219 C-11.75406073 14.72825637 -13.87485139 16.86540628 -16 19 C-17.27057614 20.27109047 -18.54143432 21.54189906 -19.8125 22.8125 C-20.83730469 23.83730469 -20.83730469 23.83730469 -21.8828125 24.8828125 C-32 35 -32 35 -34.41137695 37.40698242 C-37.0281236 40.02817134 -39.63031762 42.66313593 -42.23046875 45.30078125 C-43.70846157 46.79348699 -45.18739364 48.28525502 -46.66674805 49.77661133 C-47.68771882 50.80774427 -48.70690296 51.84064906 -49.72436523 52.87524414 C-51.20092366 54.37593475 -52.68373859 55.87018285 -54.16796875 57.36328125 C-55.04735107 58.25313721 -55.9267334 59.14299316 -56.83276367 60.05981445 C-59 62 -59 62 -61 62 C-61 62.66 -61 63.32 -61 64 C-62.485 64.495 -62.485 64.495 -64 65 C-64.66 65.99 -65.32 66.98 -66 68 C-68.5 69.5 -68.5 69.5 -71 71 C-73.3915261 72.93505224 -75.70275603 74.95432741 -78 77 C-76.69142086 74.11470629 -75.29068012 72.03476135 -73.05859375 69.79296875 C-72.47956299 69.21015137 -71.90053223 68.62733398 -71.30395508 68.02685547 C-70.6880249 67.41986816 -70.07209473 66.81288086 -69.4375 66.1875 C-68.80416748 65.55730957 -68.17083496 64.92711914 -67.51831055 64.27783203 C-64.26028504 61.07665909 -61.00355245 58.07953479 -57.3125 55.375 C-52.4358929 51.79700522 -48.57397564 47.3466121 -44.5625 42.86328125 C-40.16319027 37.94758913 -35.77955174 33.52660787 -30.5 29.5625 C-26.78521626 26.74352415 -23.86029094 23.73763918 -20.875 20.171875 C-14.8458034 13.1880556 -8.0056029 6.98128498 -1 1 C-0.67 0.67 -0.34 0.34 0 0 Z M-81 78 C-80.34 78.33 -79.68 78.66 -79 79 C-79.53109375 79.51949219 -80.0621875 80.03898437 -80.609375 80.57421875 C-85.07706169 84.97274566 -85.07706169 84.97274566 -89.125 89.75 C-91.40952567 92.4914308 -93.97339307 94.14276393 -97 96 C-95.6415798 92.95667235 -94.11536976 90.87690849 -91.7421875 88.546875 C-91.11699219 87.928125 -90.49179687 87.309375 -89.84765625 86.671875 C-89.19667969 86.03765625 -88.54570312 85.4034375 -87.875 84.75 C-87.21628906 84.1003125 -86.55757813 83.450625 -85.87890625 82.78125 C-84.25703357 81.18288273 -82.6306719 79.58938103 -81 78 Z M-102 99 C-101.34 99.33 -100.68 99.66 -100 100 C-100.93972656 100.92232422 -100.93972656 100.92232422 -101.8984375 101.86328125 C-102.71570313 102.67152344 -103.53296875 103.47976563 -104.375 104.3125 C-105.18710937 105.11300781 -105.99921875 105.91351563 -106.8359375 106.73828125 C-109.12604842 109.00009937 -109.12604842 109.00009937 -111 112 C-111.66 112 -112.32 112 -113 112 C-113.22429687 112.55171875 -113.44859375 113.1034375 -113.6796875 113.671875 C-115.40385183 116.71211744 -117.62515822 118.81425673 -120.125 121.25 C-121.03507812 122.14203125 -121.94515625 123.0340625 -122.8828125 123.953125 C-123.58148438 124.62859375 -124.28015625 125.3040625 -125 126 C-125.8125 124.3125 -125.8125 124.3125 -126 122 C-123.96484375 119.65625 -123.96484375 119.65625 -121 117 C-119.95259687 115.95492369 -118.91247407 114.90251124 -117.87890625 113.84375 C-116.77346993 112.7291345 -115.66800073 111.61455161 -114.5625 110.5 C-114.01529297 109.94441406 -113.46808594 109.38882812 -112.90429688 108.81640625 C-109.42594696 105.31747438 -105.83720439 102.10217429 -102 99 Z " fill="#310D03" transform="translate(428,219)"/>
<path d="M0 0 C0.99 0.495 0.99 0.495 2 1 C-6.10546875 9.10546875 -6.10546875 9.10546875 -7.57495117 10.57299805 C-8.90876509 11.90864004 -10.23588536 13.25095713 -11.5625 14.59375 C-13.91595266 16.91703019 -16.33476089 19.12296317 -18.8125 21.3125 C-26.84839572 28.4658374 -26.84839572 28.4658374 -33.94921875 36.515625 C-35.9616188 38.95350391 -37.90787225 40.6230418 -40.4375 42.5 C-49.25761504 49.38908394 -57.08531141 57.56566746 -64.3125 66.09375 C-67.05119048 69.18745591 -70.02279595 72.04313732 -72.984375 74.921875 C-75.03348801 76.93196015 -75.03348801 76.93196015 -76.578125 79.203125 C-78 81 -78 81 -81 82 C-82.71108689 83.62102968 -84.37253306 85.29503463 -86 87 C-89.33333333 90.33333333 -92.66666667 93.66666667 -96 97 C-96.82886719 97.84949219 -97.65773437 98.69898438 -98.51171875 99.57421875 C-100.84385341 101.84777546 -103.22319309 103.84153504 -105.8125 105.8125 C-106.60269531 106.41707031 -107.39289063 107.02164063 -108.20703125 107.64453125 C-108.79871094 108.09183594 -109.39039063 108.53914063 -110 109 C-110.66 108.67 -111.32 108.34 -112 108 C-111.21496094 107.29875 -110.42992187 106.5975 -109.62109375 105.875 C-104.36470986 101.14224376 -99.32952531 96.43440194 -94.7578125 91.0234375 C-87.95101412 83.18805625 -79.37299008 73.35851506 -69.8046875 69 C-67.84850741 68.13896846 -67.84850741 68.13896846 -67.06835938 66.12866211 C-65.96729942 63.93484544 -64.85624027 62.63800235 -63.1015625 60.94140625 C-62.53953125 60.39033203 -61.9775 59.83925781 -61.3984375 59.27148438 C-60.81320313 58.70751953 -60.22796875 58.14355469 -59.625 57.5625 C-55.80898597 53.86147746 -52.30483013 50.1756493 -49 46 C-47.84383525 44.92365955 -46.6559508 43.8802877 -45.4375 42.875 C-41.26926538 39.334748 -37.46211163 35.50119081 -33.68139648 31.55615234 C-32.49033002 30.33453476 -31.24876586 29.16257158 -30 28 C-29.34 28 -28.68 28 -28 28 C-27.60844727 27.12166504 -27.60844727 27.12166504 -27.20898438 26.22558594 C-25.92607857 23.86392008 -24.54932909 22.29086709 -22.65625 20.390625 C-21.99109375 19.72160156 -21.3259375 19.05257813 -20.640625 18.36328125 C-19.93421875 17.66589844 -19.2278125 16.96851563 -18.5 16.25 C-17.42492187 15.18072266 -17.42492187 15.18072266 -16.328125 14.08984375 C-11.15565587 9.00110163 -5.86531604 4.28619249 0 0 Z " fill="#BB340E" transform="translate(296,318)"/>
<path d="M0 0 C0.99 0.99 0.99 0.99 2 2 C-3.1615774 7.95898184 -8.19939179 13.36894806 -14.5703125 18.05078125 C-19.29139042 21.83826981 -23.42223239 26.27824135 -27.640625 30.60839844 C-29.74094061 32.75850601 -31.87154668 34.87777023 -34 37 C-35.34392238 38.3435776 -36.68765416 39.68734586 -38.03125 41.03125 C-46.96875 49.96875 -46.96875 49.96875 -49.09228516 52.09033203 C-50.64700024 53.64663883 -52.19551427 55.20913837 -53.7421875 56.7734375 C-55.97345132 58.97381877 -58.27228889 61.05555846 -60.625 63.125 C-66.88054243 68.7146601 -72.80944325 74.62680397 -78.61328125 80.68359375 C-80 82 -80 82 -83.25 84.1875 C-86.80008119 86.67330108 -89.39986823 89.5766689 -92.17578125 92.8828125 C-95.25079858 96.45167629 -98.63904413 99.70313015 -102 103 C-102.86625 103.86625 -103.7325 104.7325 -104.625 105.625 C-107.41666667 108.41666667 -110.20833333 111.20833333 -113 114 C-113.66 113.67 -114.32 113.34 -115 113 C-114.32626343 112.33411865 -114.32626343 112.33411865 -113.63891602 111.65478516 C-111.61084393 109.64746397 -109.58663584 107.63629001 -107.5625 105.625 C-106.85544922 104.92632812 -106.14839844 104.22765625 -105.41992188 103.5078125 C-104.74638672 102.8375 -104.07285156 102.1671875 -103.37890625 101.4765625 C-102.7557251 100.85861816 -102.13254395 100.24067383 -101.49047852 99.60400391 C-99.90951849 98.05339933 -99.90951849 98.05339933 -99 96 C-98.34 96 -97.68 96 -97 96 C-96.505 94.515 -96.505 94.515 -96 93 C-95.34 93 -94.68 93 -94 93 C-93.60385498 92.11598511 -93.60385498 92.11598511 -93.19970703 91.21411133 C-91.95422948 88.91552851 -90.65447786 87.41060483 -88.8046875 85.57421875 C-88.17457764 84.94523682 -87.54446777 84.31625488 -86.89526367 83.66821289 C-86.22857666 83.01457764 -85.56188965 82.36094238 -84.875 81.6875 C-83.86046753 80.68481079 -83.86046753 80.68481079 -82.82543945 79.66186523 C-69.94385225 67 -69.94385225 67 -67 67 C-66.78730469 66.46246094 -66.57460938 65.92492187 -66.35546875 65.37109375 C-64.49668292 62.11955774 -61.96222157 59.6669341 -59.3125 57.0625 C-58.77230225 56.52616943 -58.23210449 55.98983887 -57.67553711 55.43725586 C-54.00861588 51.84948867 -50.25885273 48.86820694 -46 46 C-44.84246332 44.87420564 -43.68898248 43.74385595 -42.55932617 42.59008789 C-40.66547569 40.65887634 -38.74291535 38.75805558 -36.8203125 36.85546875 C-35.25514685 35.29954101 -33.6900443 33.7435498 -32.125 32.1875 C-31.34769531 31.41857422 -30.57039063 30.64964844 -29.76953125 29.85742188 C-25.52529416 25.63101771 -21.46077184 21.32430754 -17.5546875 16.78393555 C-12.23538322 10.68026777 -6.35354019 5.01595278 0 0 Z " fill="#BF350F" transform="translate(416,201)"/>
<path d="M0 0 C0 2 0 2 -1.64453125 3.7265625 C-2.35996094 4.35304687 -3.07539063 4.97953125 -3.8125 5.625 C-4.87404297 6.57246094 -4.87404297 6.57246094 -5.95703125 7.5390625 C-8 9 -8 9 -11 9 C-9.54782324 7.49403892 -8.08807139 5.99537896 -6.625 4.5 C-5.40683594 3.24703125 -5.40683594 3.24703125 -4.1640625 1.96875 C-2 0 -2 0 0 0 Z M-13 10 C-12.34 10.33 -11.68 10.66 -11 11 C-12.39412109 12.37671875 -12.39412109 12.37671875 -13.81640625 13.78125 C-21.57728938 21.39129875 -21.57728938 21.39129875 -28.875 29.4375 C-31.64511135 32.70748107 -34.68644693 35.44048413 -37.953125 38.20703125 C-40.84031234 40.73607512 -43.49076827 43.478473 -46.1796875 46.21484375 C-48.32372519 48.31747298 -50.65687668 50.12550134 -53 52 C-53.556875 52.7425 -54.11375 53.485 -54.6875 54.25 C-55.120625 54.8275 -55.55375 55.405 -56 56 C-56.66 56 -57.32 56 -58 56 C-56.71001845 53.15805134 -55.36362413 51.12188057 -53.13671875 48.94140625 C-52.57919922 48.39033203 -52.02167969 47.83925781 -51.44726562 47.27148438 C-50.57618164 46.42553711 -50.57618164 46.42553711 -49.6875 45.5625 C-48.83381836 44.72235352 -48.83381836 44.72235352 -47.96289062 43.86523438 C-46.84219974 42.76255689 -45.71840624 41.66302252 -44.59130859 40.56689453 C-43.55931549 39.5507344 -42.54039374 38.52105805 -41.53759766 37.47607422 C-40.39279891 36.28338297 -39.20042548 35.13668608 -38 34 C-37.34 34 -36.68 34 -36 34 C-35.78601563 33.45988281 -35.57203125 32.91976562 -35.3515625 32.36328125 C-33.51362069 29.14953907 -31.003179 26.75099531 -28.375 24.1875 C-27.84028076 23.65922607 -27.30556152 23.13095215 -26.75463867 22.58666992 C-22.64456077 18.55559637 -18.39389112 14.71975988 -14 11 C-13.67 10.67 -13.34 10.34 -13 10 Z M-60 56 C-59.34 56.33 -58.68 56.66 -58 57 C-60.97 59.475 -60.97 59.475 -64 62 C-64 61.01 -64 60.02 -64 59 C-62 57.3125 -62 57.3125 -60 56 Z M-69 64 C-68.34 64.33 -67.68 64.66 -67 65 C-68.96615406 66.96615406 -70.93271798 68.93185301 -72.90234375 70.89453125 C-74.53746639 72.53574373 -76.14862875 74.20083915 -77.75 75.875 C-79.82392178 77.8337039 -81.45571331 78.8133789 -84 80 C-79.30233025 74.33870569 -74.25276628 69.14771096 -69 64 Z " fill="#9E2C0C" transform="translate(421,206)"/>
<path d="M0 0 C1.52491998 3.04983996 1.23562548 5.6423369 1 9 C-0.0625 10.9375 -0.0625 10.9375 -2 12 C-5.92005446 12.49891602 -8.11594538 12.55253414 -11.5 10.4375 C-13 8 -13 8 -13.0625 4.4375 C-12 1 -12 1 -9.875 -1.0625 C-5.96697471 -2.33685607 -3.75222414 -1.51532129 0 0 Z " fill="#000000" transform="translate(792,686)"/>
<path d="M0 0 C1.52491998 3.04983996 1.23562548 5.6423369 1 9 C-0.0625 10.9375 -0.0625 10.9375 -2 12 C-5.92005446 12.49891602 -8.11594538 12.55253414 -11.5 10.4375 C-13 8 -13 8 -13.0625 4.4375 C-12 1 -12 1 -9.875 -1.0625 C-5.96697471 -2.33685607 -3.75222414 -1.51532129 0 0 Z " fill="#000000" transform="translate(371,686)"/>
<path d="M0 0 C3 2 3 2 3.875 4.3125 C4.03486723 7.74964547 2.98450394 9.25222531 1 12 C0 13 0 13 -3.3125 13.375 C-7 13 -7 13 -9.5 10.875 C-11 8 -11 8 -11.0625 4.875 C-10 2 -10 2 -7.75 0.0625 C-4.5619911 -1.16923071 -3.20029193 -1.09483671 0 0 Z " fill="#000000" transform="translate(394,685)"/>
<path d="M0 0 C2 2 2 2 2.3125 5.4375 C2 9 2 9 0.9375 10.9375 C-2.1652833 12.63902633 -4.53769185 12.42519574 -8 12 C-10.5 10.4375 -10.5 10.4375 -12 8 C-12.0625 4.4375 -12.0625 4.4375 -11 1 C-7.12126632 -2.65709176 -4.65429004 -2.17200202 0 0 Z " fill="#000000" transform="translate(684,686)"/>
<path d="" fill="#EF4010" transform="translate(0,0)"/>
</svg>
